<svg id="SvgjsSvg1086" xmlns="http://www.w3.org/2000/svg" version="1.1" xmlns:xlink="http://www.w3.org/1999/xlink" xmlns:svgjs="http://svgjs.com/svgjs" width="53" height="53" viewBox="0 0 53 53"><title>Shape</title><desc>Created with Avocode.</desc><defs id="SvgjsDefs1087"></defs><path id="SvgjsPath1088" d="M1099.5 1132C1084.86 1132 1073 1143.87 1073 1158.5C1073 1173.13 1084.86 1185 1099.5 1185C1114.13 1185 1126 1173.13 1126 1158.5C1126 1143.86 1114.13 1132 1099.5 1132Z " fill="#6da0fe" fill-opacity="1" transform="matrix(1,0,0,1,-1073,-1132)"></path><path id="SvgjsPath1089" d="M1090.11 1146L1090.1 1146C1089.81 1146 1089.53 1146.12 1089.33 1146.33C1089.12 1146.54 1089 1146.82 1089 1147.12L1089 1163.9699999999998C1089 1164.5899999999997 1089.5 1165.0899999999997 1090.11 1165.1C1092.6899999999998 1165.1 1097.02 1165.6499999999999 1100 1168.81L1100 1151.1799999999998C1100 1150.9699999999998 1099.95 1150.7699999999998 1099.85 1150.61C1097.3999999999999 1146.61 1092.6899999999998 1146.01 1090.11 1146Z " fill="#ffffff" fill-opacity="1" transform="matrix(1,0,0,1,-1073,-1132)"></path><path id="SvgjsPath1090" d="M1112 1163.97L1112 1147.1200000000001C1112 1146.8200000000002 1111.89 1146.5400000000002 1111.68 1146.3300000000002C1111.47 1146.1200000000001 1111.19 1146.0000000000002 1110.9 1146.0000000000002L1110.9 1146.0000000000002C1108.3100000000002 1146.0100000000002 1103.6000000000001 1146.6100000000001 1101.15 1150.6100000000001C1101.0500000000002 1150.7700000000002 1101 1150.97 1101 1151.18L1101 1168.8100000000002C1103.98 1165.65 1108.31 1165.1000000000001 1110.89 1165.1000000000001C1111.5 1165.0900000000001 1112 1164.5900000000001 1112 1163.97Z " fill="#ffffff" fill-opacity="1" transform="matrix(1,0,0,1,-1073,-1132)"></path><path id="SvgjsPath1091" d="M1114.99 1150L1114.19 1150L1114.19 1164.09C1114.19 1165.6599999999999 1112.92 1166.9499999999998 1111.3600000000001 1166.9499999999998C1109.17 1166.9599999999998 1105.5600000000002 1167.3899999999999 1103.0000000000002 1169.85C1107.4200000000003 1168.75 1112.0900000000001 1169.4599999999998 1114.7400000000002 1170.08C1115.0800000000002 1170.1499999999999 1115.4200000000003 1170.07 1115.6800000000003 1169.86C1115.9500000000003 1169.6399999999999 1116.1000000000004 1169.32 1116.1000000000004 1168.9799999999998L1116.1000000000004 1151.12C1116.1000000000004 1150.5 1115.6000000000004 1150 1114.9900000000005 1150Z " fill="#ffffff" fill-opacity="1" transform="matrix(1,0,0,1,-1073,-1132)"></path><path id="SvgjsPath1092" d="M1086.91 1164.09L1086.91 1150L1086.1100000000001 1150C1085.5000000000002 1150 1085.0000000000002 1150.5 1085.0000000000002 1151.12L1085.0000000000002 1168.9799999999998C1085.0000000000002 1169.3199999999997 1085.1500000000003 1169.6399999999999 1085.4200000000003 1169.86C1085.6800000000003 1170.07 1086.0300000000002 1170.1499999999999 1086.3600000000004 1170.08C1089.0100000000004 1169.46 1093.6800000000003 1168.75 1098.1000000000004 1169.85C1095.5400000000004 1167.3899999999999 1091.9300000000003 1166.9599999999998 1089.7400000000005 1166.9499999999998C1088.1800000000005 1166.9499999999998 1086.9100000000005 1165.6599999999999 1086.9100000000005 1164.09Z " fill="#ffffff" fill-opacity="1" transform="matrix(1,0,0,1,-1073,-1132)"></path></svg>