<svg id="SvgjsSvg1066" xmlns="http://www.w3.org/2000/svg" version="1.1" xmlns:xlink="http://www.w3.org/1999/xlink" xmlns:svgjs="http://svgjs.com/svgjs" width="134.25" height="134.5" viewBox="0 0 134.25 134.5"><title>Shape</title><desc>Created with Avocode.</desc><defs id="SvgjsDefs1067"></defs><path id="SvgjsPath1068" d="M211.81 1194L167.22 1194C158.81 1194 152 1200.78 152 1209.14L152 1245.3400000000001C152 1253.71 158.82 1260.4900000000002 167.22 1260.4900000000002L179.59 1260.4900000000002C179.66 1260.4600000000003 192.94 1273.4900000000002 193.58 1273.2700000000002C193.61 1273.2400000000002 193.71 1260.4900000000002 193.57000000000002 1260.4900000000002L211.81000000000003 1260.4900000000002C220.23000000000002 1260.4900000000002 227.03000000000003 1253.7100000000003 227.03000000000003 1245.3400000000001L227.03000000000003 1209.14C227.03000000000003 1200.7800000000002 220.22000000000003 1194 211.81000000000003 1194Z " fill="#ac9279" fill-opacity="0.14" transform="matrix(1,0,0,1,-151.75,-1140)"></path><path id="SvgjsPath1069" d="M211.81 1194L167.22 1194C158.81 1194 152 1200.78 152 1209.14L152 1245.3400000000001C152 1253.71 158.82 1260.4900000000002 167.22 1260.4900000000002L179.59 1260.4900000000002C179.66 1260.4600000000003 192.94 1273.4900000000002 193.58 1273.2700000000002C193.61 1273.2400000000002 193.71 1260.4900000000002 193.57000000000002 1260.4900000000002L211.81000000000003 1260.4900000000002C220.23000000000002 1260.4900000000002 227.03000000000003 1253.7100000000003 227.03000000000003 1245.3400000000001L227.03000000000003 1209.14C227.03000000000003 1200.7800000000002 220.22000000000003 1194 211.81000000000003 1194Z " fill-opacity="0" fill="#ffffff" stroke-dasharray="0" stroke-linejoin="miter" stroke-linecap="butt" stroke-opacity="1" stroke="#ac9279" stroke-miterlimit="50" stroke-width="1" transform="matrix(1,0,0,1,-151.75,-1140)"></path><path id="SvgjsPath1070" d="M270.33 1140L213.20999999999998 1140C204.80999999999997 1140 197.99999999999997 1146.81 197.99999999999997 1155.22L197.99999999999997 1199.94C197.99999999999997 1208.3400000000001 204.80999999999997 1215.16 213.20999999999998 1215.16L239.80999999999997 1215.16C239.65999999999997 1215.16 239.75999999999996 1227.98 239.79999999999998 1228.01C240.43999999999997 1228.22 253.70999999999998 1215.1299999999999 253.77999999999997 1215.16L270.33 1215.16C278.72999999999996 1215.16 285.53999999999996 1208.3500000000001 285.53999999999996 1199.94L285.53999999999996 1155.22C285.54999999999995 1146.81 278.73999999999995 1140 270.33 1140Z " fill="#6da0fe" fill-opacity="1" transform="matrix(1,0,0,1,-151.75,-1140)"></path><path id="SvgjsPath1071" d="M215 1179.26C215 1182.71 217.8 1185.52 221.26 1185.52C224.70999999999998 1185.52 227.51999999999998 1182.72 227.51999999999998 1179.26C227.51999999999998 1175.8 224.70999999999998 1173 221.26 1173C217.79999999999998 1173 215 1175.8 215 1179.26ZM235.87 1179.26C235.87 1182.71 238.67000000000002 1185.52 242.12 1185.52C245.58 1185.52 248.38 1182.72 248.38 1179.26C248.38 1175.8 245.57999999999998 1173 242.12 1173C238.67000000000002 1173 235.87 1175.8 235.87 1179.26ZM262.99 1173C266.45 1173 269.25 1175.8 269.25 1179.26C269.25 1182.72 266.45 1185.52 262.99 1185.52C259.53000000000003 1185.52 256.73 1182.71 256.73 1179.26C256.73 1175.8 259.53000000000003 1173 262.99 1173Z " fill="#ffffff" fill-opacity="1" transform="matrix(1,0,0,1,-151.75,-1140)"></path></svg>