<svg id="SvgjsSvg1082" xmlns="http://www.w3.org/2000/svg" version="1.1" xmlns:xlink="http://www.w3.org/1999/xlink" xmlns:svgjs="http://svgjs.com/svgjs" width="53" height="53" viewBox="0 0 53 53"><title>Shape</title><desc>Created with Avocode.</desc><defs id="SvgjsDefs1083"></defs><path id="SvgjsPath1084" d="M799.5 1215C784.86 1215 773 1226.87 773 1241.5C773 1256.13 784.86 1268 799.5 1268C814.13 1268 826 1256.13 826 1241.5C826 1226.86 814.13 1215 799.5 1215Z " fill="#6da0fe" fill-opacity="1" transform="matrix(1,0,0,1,-773,-1215)"></path><path id="SvgjsPath1085" d="M806.84 1228.72L806.84 1227.6000000000001C806.84 1227.2700000000002 806.5600000000001 1227.0000000000002 806.23 1227.0000000000002L793.45 1227.0000000000002C793.11 1227.0000000000002 792.83 1227.2700000000002 792.83 1227.6000000000001L792.83 1228.72L788.62 1228.72C788.28 1228.72 788 1228.99 788 1229.32L788 1229.6599999999999C788 1234.7499999999998 790.64 1238.86 794.03 1239.06C794.92 1240.36 796.25 1241.31 797.77 1241.77L797.77 1248.57L795.4499999999999 1248.57C795.1099999999999 1248.57 794.8299999999999 1248.84 794.8299999999999 1249.1699999999998L794.8299999999999 1250.1399999999999L793.4 1250.1399999999999C793.06 1250.1399999999999 792.78 1250.4099999999999 792.78 1250.7399999999998L792.78 1255.2899999999997C792.78 1255.6199999999997 793.06 1255.8899999999996 793.4 1255.8899999999996L806.28 1255.8899999999996C806.62 1255.8899999999996 806.9 1255.6199999999997 806.9 1255.2899999999997L806.9 1250.7399999999998C806.9 1250.4099999999999 806.62 1250.1399999999999 806.28 1250.1399999999999L804.85 1250.1399999999999L804.85 1249.1699999999998C804.85 1248.84 804.57 1248.57 804.23 1248.57L801.91 1248.57L801.91 1241.77C803.43 1241.31 804.75 1240.36 805.65 1239.06C809.03 1238.86 811.68 1234.75 811.68 1229.6599999999999L811.68 1229.32C811.68 1228.99 811.4 1228.72 811.06 1228.72ZM792.83 1235.27C792.83 1235.8 792.9000000000001 1236.34 793.0300000000001 1236.86C791.4100000000001 1235.9799999999998 790.1800000000001 1233.4799999999998 789.96 1230.59L792.83 1230.59ZM806.84 1235.27L806.84 1230.59L809.71 1230.59C809.5 1233.48 808.26 1235.98 806.64 1236.86C806.77 1236.34 806.84 1235.8 806.84 1235.27Z " fill="#ffffff" fill-opacity="1" transform="matrix(1,0,0,1,-773,-1215)"></path></svg>