<svg id="SvgjsSvg1033" xmlns="http://www.w3.org/2000/svg" version="1.1" xmlns:xlink="http://www.w3.org/1999/xlink" xmlns:svgjs="http://svgjs.com/svgjs" width="91" height="91" viewBox="0 0 91 91"><title>Oval 80</title><desc>Created with Avocode.</desc><defs id="SvgjsDefs1034"></defs><path id="SvgjsPath1035" d="M495 843.5C495 818.92333 514.92333 799 539.5 799C564.07667 799 584 818.92333 584 843.5C584 868.07667 564.07667 888 539.5 888C514.92333 888 495 868.07667 495 843.5Z " fill-opacity="0" fill="#ffffff" stroke-dasharray="0" stroke-linejoin="miter" stroke-linecap="butt" stroke-opacity="1" stroke="#6da0fe" stroke-miterlimit="50" stroke-width="2" transform="matrix(1,0,0,1,-494,-798)"></path><path id="SvgjsPath1036" d="M533.18 836.12L529.9599999999999 833.07C530.3299999999999 832.3900000000001 530.5699999999999 831.61 530.5699999999999 830.7800000000001C530.5699999999999 828.1400000000001 528.43 826.0000000000001 525.78 826.0000000000001C523.14 826.0000000000001 521 828.1400000000001 521 830.7800000000001C521 833.4200000000001 523.14 835.5600000000001 525.78 835.5600000000001C526.72 835.5600000000001 527.5799999999999 835.2900000000001 528.31 834.83L531.53 837.87C532.02 837.22 532.5699999999999 836.63 533.18 836.12Z " fill="#6da0fe" fill-opacity="1" transform="matrix(1,0,0,1,-494,-798)"></path><path id="SvgjsPath1037" d="M546.06 835.56L550.3499999999999 828.3599999999999C550.7699999999999 828.4799999999999 551.2099999999999 828.56 551.67 828.56C554.31 828.56 556.4499999999999 826.42 556.4499999999999 823.78C556.4499999999999 821.14 554.31 819 551.67 819C549.02 819 546.89 821.14 546.89 823.78C546.89 825.0899999999999 547.42 826.28 548.27 827.14L544 834.33C544.73 834.6600000000001 545.43 835.08 546.06 835.5600000000001Z " fill="#6da0fe" fill-opacity="1" transform="matrix(1,0,0,1,-494,-798)"></path><path id="SvgjsPath1038" d="M561.66 842C559.6 842 557.86 843.31 557.1899999999999 845.13L551.2299999999999 844.54C551.2299999999999 844.5899999999999 551.2399999999999 844.63 551.2399999999999 844.67C551.2399999999999 845.4499999999999 551.1499999999999 846.2099999999999 550.9999999999999 846.9399999999999L556.9499999999999 847.53C557.31 849.81 559.27 851.56 561.66 851.56C564.3 851.56 566.4399999999999 849.42 566.4399999999999 846.78C566.4399999999999 844.14 564.3 842 561.66 842Z " fill="#6da0fe" fill-opacity="1" transform="matrix(1,0,0,1,-494,-798)"></path><path id="SvgjsPath1039" d="M544.93 860.81L543.5999999999999 855C542.8499999999999 855.26 542.06 855.45 541.2499999999999 855.54L542.5799999999999 861.36C541.05 862.16 539.9999999999999 863.74 539.9999999999999 865.58C539.9999999999999 868.22 542.1399999999999 870.36 544.7799999999999 870.36C547.4299999999998 870.36 549.5599999999998 868.22 549.5599999999998 865.58C549.5699999999998 862.99 547.4999999999999 860.89 544.9299999999998 860.8100000000001Z " fill="#6da0fe" fill-opacity="1" transform="matrix(1,0,0,1,-494,-798)"></path><path id="SvgjsPath1040" d="M529.19 847L521.7800000000001 849.48C520.9300000000001 848.1800000000001 519.45 847.3100000000001 517.7800000000001 847.3100000000001C515.1400000000001 847.3100000000001 513.0000000000001 849.45 513.0000000000001 852.09C513.0000000000001 854.73 515.1400000000001 856.87 517.7800000000001 856.87C520.4200000000001 856.87 522.5600000000001 854.73 522.5600000000001 852.09C522.5600000000001 851.98 522.5400000000001 851.88 522.5300000000001 851.77L529.96 849.28C529.63 848.56 529.36 847.8 529.19 847Z " fill="#6da0fe" fill-opacity="1" transform="matrix(1,0,0,1,-494,-798)"></path><path id="SvgjsPath1041" d="M532 844C532 839.58172 535.58172 836 540 836C544.41828 836 548 839.58172 548 844C548 848.41828 544.41828 852 540 852C535.58172 852 532 848.41828 532 844Z " fill="#6da0fe" fill-opacity="1" transform="matrix(1,0,0,1,-494,-798)"></path></svg>