<svg id="SvgjsSvg1042" xmlns="http://www.w3.org/2000/svg" version="1.1" xmlns:xlink="http://www.w3.org/1999/xlink" xmlns:svgjs="http://svgjs.com/svgjs" width="91" height="91" viewBox="0 0 91 91"><title>Oval 80</title><desc>Created with Avocode.</desc><defs id="SvgjsDefs1043"></defs><path id="SvgjsPath1044" d="M854 843.5C854 818.92333 873.92333 799 898.5 799C923.07667 799 943 818.92333 943 843.5C943 868.07667 923.07667 888 898.5 888C873.92333 888 854 868.07667 854 843.5Z " fill-opacity="0" fill="#ffffff" stroke-dasharray="0" stroke-linejoin="miter" stroke-linecap="butt" stroke-opacity="1" stroke="#6da0fe" stroke-miterlimit="50" stroke-width="2" transform="matrix(1,0,0,1,-853,-798)"></path><path id="SvgjsPath1045" d="M887.69 832.74L888.3100000000001 832.74C889.24 832.74 890.0000000000001 831.98 890.0000000000001 831.05L890.0000000000001 826.42L890.0000000000001 824.68C890.0000000000001 823.75 889.2400000000001 823 888.3100000000001 823L887.69 823C886.7600000000001 823 886 823.75 886 824.68L886 826.42L886 831.05C886 831.9799999999999 886.76 832.74 887.69 832.74Z " fill="#6da0fe" fill-opacity="1" transform="matrix(1,0,0,1,-853,-798)"></path><path id="SvgjsPath1046" d="M909.69 832.74L910.3100000000001 832.74C911.24 832.74 912.0000000000001 831.98 912.0000000000001 831.05L912.0000000000001 826.02L912.0000000000001 824.68C912.0000000000001 823.75 911.2400000000001 823 910.3100000000001 823L909.69 823C908.7600000000001 823 908 823.75 908 824.68L908 826.02L908 831.05C908 831.9799999999999 908.76 832.74 909.69 832.74Z " fill="#6da0fe" fill-opacity="1" transform="matrix(1,0,0,1,-853,-798)"></path><path id="SvgjsPath1047" d="M912.9 826L912.9 831.04C912.9 832.7199999999999 911.52 833.64 909.8299999999999 833.64L909.2199999999999 833.64C907.5199999999999 833.64 906.1499999999999 832.28 906.1499999999999 830.6L906.1499999999999 826L891.1899999999998 826L891.1899999999998 830.64C891.1899999999998 832.3199999999999 889.8099999999998 833.6899999999999 888.1199999999998 833.6899999999999L887.5099999999998 833.6899999999999C885.8099999999997 833.6899999999999 884.4399999999997 832.3199999999999 884.4399999999997 830.64L884.4399999999997 826L879.7499999999997 826C878.2299999999997 826 876.9999999999997 827.23 876.9999999999997 828.73L876.9999999999997 861.75C876.9999999999997 863.26 878.2299999999997 864.49 879.7499999999997 864.49L917.2399999999997 864.49C918.7599999999996 864.49 919.9999999999997 863.26 919.9999999999997 861.75L919.9999999999997 828.73C919.9999999999997 827.23 918.7599999999996 826 917.2399999999997 826ZM879.75 861.75L879.75 836.82L917.24 836.82L917.25 861.75C917.25 861.75 917.25 861.75 917.24 861.75Z " fill="#6da0fe" fill-opacity="1" transform="matrix(1,0,0,1,-853,-798)"></path><path id="SvgjsPath1048" d="M900.35 845.95L905.3000000000001 845.95C905.4900000000001 845.95 905.6500000000001 845.8000000000001 905.6500000000001 845.6L905.6500000000001 841.35C905.6500000000001 841.16 905.4900000000001 841 905.3000000000001 841L900.35 841C900.16 841 900 841.16 900 841.35L900 845.6C900 845.8000000000001 900.16 845.95 900.35 845.95Z " fill="#6da0fe" fill-opacity="1" transform="matrix(1,0,0,1,-853,-798)"></path><path id="SvgjsPath1049" d="M908.35 845.95L913.3000000000001 845.95C913.4900000000001 845.95 913.6500000000001 845.8000000000001 913.6500000000001 845.6L913.6500000000001 841.35C913.6500000000001 841.16 913.4900000000001 841 913.3000000000001 841L908.35 841C908.16 841 908 841.16 908 841.35L908 845.6C908 845.8000000000001 908.16 845.95 908.35 845.95Z " fill="#6da0fe" fill-opacity="1" transform="matrix(1,0,0,1,-853,-798)"></path><path id="SvgjsPath1050" d="M883.35 852.95L888.3000000000001 852.95C888.4900000000001 852.95 888.6500000000001 852.8000000000001 888.6500000000001 852.6L888.6500000000001 848.35C888.6500000000001 848.16 888.4900000000001 848 888.3000000000001 848L883.35 848C883.16 848 883 848.16 883 848.35L883 852.6C883 852.8000000000001 883.16 852.95 883.35 852.95Z " fill="#6da0fe" fill-opacity="1" transform="matrix(1,0,0,1,-853,-798)"></path><path id="SvgjsPath1051" d="M892.35 852.95L897.3000000000001 852.95C897.4900000000001 852.95 897.6500000000001 852.8000000000001 897.6500000000001 852.6L897.6500000000001 848.35C897.6500000000001 848.16 897.4900000000001 848 897.3000000000001 848L892.35 848C892.16 848 892 848.16 892 848.35L892 852.6C892 852.8000000000001 892.16 852.95 892.35 852.95Z " fill="#6da0fe" fill-opacity="1" transform="matrix(1,0,0,1,-853,-798)"></path><path id="SvgjsPath1052" d="M900.35 852.95L905.3000000000001 852.95C905.4900000000001 852.95 905.6500000000001 852.8000000000001 905.6500000000001 852.6L905.6500000000001 848.35C905.6500000000001 848.16 905.4900000000001 848 905.3000000000001 848L900.35 848C900.16 848 900 848.16 900 848.35L900 852.6C900 852.8000000000001 900.16 852.95 900.35 852.95Z " fill="#6da0fe" fill-opacity="1" transform="matrix(1,0,0,1,-853,-798)"></path><path id="SvgjsPath1053" d="M908.35 852.95L913.3000000000001 852.95C913.4900000000001 852.95 913.6500000000001 852.8000000000001 913.6500000000001 852.6L913.6500000000001 848.35C913.6500000000001 848.16 913.4900000000001 848 913.3000000000001 848L908.35 848C908.16 848 908 848.16 908 848.35L908 852.6C908 852.8000000000001 908.16 852.95 908.35 852.95Z " fill="#6da0fe" fill-opacity="1" transform="matrix(1,0,0,1,-853,-798)"></path><path id="SvgjsPath1054" d="M888.3 855L883.3499999999999 855C883.1599999999999 855 882.9999999999999 855.16 882.9999999999999 855.35L882.9999999999999 859.6C882.9999999999999 859.8000000000001 883.1599999999999 859.95 883.3499999999999 859.95L888.3 859.95C888.49 859.95 888.65 859.8000000000001 888.65 859.6L888.65 855.35C888.65 855.16 888.49 855 888.3 855Z " fill="#6da0fe" fill-opacity="1" transform="matrix(1,0,0,1,-853,-798)"></path><path id="SvgjsPath1055" d="M897.3 855L892.3499999999999 855C892.1599999999999 855 891.9999999999999 855.16 891.9999999999999 855.35L891.9999999999999 859.6C891.9999999999999 859.8000000000001 892.1599999999999 859.95 892.3499999999999 859.95L897.3 859.95C897.49 859.95 897.65 859.8000000000001 897.65 859.6L897.65 855.35C897.65 855.16 897.49 855 897.3 855Z " fill="#6da0fe" fill-opacity="1" transform="matrix(1,0,0,1,-853,-798)"></path><path id="SvgjsPath1056" d="M905.3 855L900.3499999999999 855C900.1599999999999 855 899.9999999999999 855.16 899.9999999999999 855.35L899.9999999999999 859.6C899.9999999999999 859.8000000000001 900.1599999999999 859.95 900.3499999999999 859.95L905.3 859.95C905.49 859.95 905.65 859.8000000000001 905.65 859.6L905.65 855.35C905.65 855.16 905.49 855 905.3 855Z " fill="#6da0fe" fill-opacity="1" transform="matrix(1,0,0,1,-853,-798)"></path><path id="SvgjsPath1057" d="M913.3 855L908.3499999999999 855C908.1599999999999 855 907.9999999999999 855.16 907.9999999999999 855.35L907.9999999999999 859.6C907.9999999999999 859.8000000000001 908.1599999999999 859.95 908.3499999999999 859.95L913.3 859.95C913.49 859.95 913.65 859.8000000000001 913.65 859.6L913.65 855.35C913.65 855.16 913.49 855 913.3 855Z " fill="#6da0fe" fill-opacity="1" transform="matrix(1,0,0,1,-853,-798)"></path></svg>