<svg id="SvgjsSvg1028" xmlns="http://www.w3.org/2000/svg" version="1.1" xmlns:xlink="http://www.w3.org/1999/xlink" xmlns:svgjs="http://svgjs.com/svgjs" width="91" height="91" viewBox="0 0 91 91"><title>Oval 80</title><desc>Created with Avocode.</desc><defs id="SvgjsDefs1029"></defs><path id="SvgjsPath1030" d="M130 843.5C130 818.92333 149.92333 799 174.5 799C199.07667 799 219 818.92333 219 843.5C219 868.07667 199.07667 888 174.5 888C149.92333 888 130 868.07667 130 843.5Z " fill-opacity="0" fill="#ffffff" stroke-dasharray="0" stroke-linejoin="miter" stroke-linecap="butt" stroke-opacity="1" stroke="#6da0fe" stroke-miterlimit="50" stroke-width="2" transform="matrix(1,0,0,1,-129,-798)"></path><path id="SvgjsPath1031" d="M175.7 848.06L159 843L159 847.98L159 851.45C159 855.35 166.48 858.5200000000001 175.71 858.5200000000001C184.93 858.5200000000001 192.41 855.3500000000001 192.41 851.45C192.41 851.4200000000001 192.4 851.38 192.4 851.35L192.4 843Z " fill="#6da0fe" fill-opacity="1" transform="matrix(1,0,0,1,-129,-798)"></path><path id="SvgjsPath1032" d="M148 837.6L153.97 839.7L154.47 838.62L156.67 838.44L156.98 838.7600000000001L155.1 839.2000000000002L154.82 840.0000000000001C154.82 840.0000000000001 150.57999999999998 848.7400000000001 151.2 853.0100000000001C151.2 853.0100000000001 153.85 854.57 156.5 853.0100000000001L157.21 841.32L157.21 840.35L161.15 839.47L160.87 840.15L157.93 841.09L159.29000000000002 841.57L175.99 846.63L192.69 841.57L203.99 837.6L175.99 827Z " fill="#6da0fe" fill-opacity="1" transform="matrix(1,0,0,1,-129,-798)"></path></svg>