<svg id="SvgjsSvg1110" xmlns="http://www.w3.org/2000/svg" version="1.1" xmlns:xlink="http://www.w3.org/1999/xlink" xmlns:svgjs="http://svgjs.com/svgjs" width="20" height="22" viewBox="0 0 20 22"><title>Shape</title><desc>Created with Avocode.</desc><defs id="SvgjsDefs1111"></defs><path id="SvgjsPath1112" d="M1088.49 1789.11L1069 1789.11L1069 1796.99L1074.56 1796.99C1074.73 1796.99 1074.8999999999999 1797.04 1075.04 1797.1200000000001C1075.06 1797.13 1075.08 1797.14 1075.09 1797.16L1075.11 1797.17L1075.1399999999999 1797.19C1075.36 1797.3600000000001 1075.4999999999998 1797.64 1075.4999999999998 1797.93L1075.4999999999998 1803.48L1088.5099999999998 1803.48ZM1083.84 1788.16C1083.09 1787.89 1082.55 1787.17 1082.55 1786.3300000000002C1082.55 1785.95 1082.6599999999999 1785.5900000000001 1082.86 1785.2700000000002L1082.86 1784.0000000000002L1074.6299999999999 1784.0000000000002L1074.6299999999999 1785.2900000000002C1074.83 1785.6000000000001 1074.9399999999998 1785.9600000000003 1074.9399999999998 1786.3300000000002C1074.9399999999998 1787.17 1074.3999999999999 1787.89 1073.6499999999999 1788.16ZM1074.55 1797.93L1069.6699999999998 1797.94L1074.55 1802.81ZM1088.49 1788.16L1088.49 1783.99L1086.13 1784L1086.13 1785.28C1086.3400000000001 1785.59 1086.44 1785.95 1086.44 1786.33C1086.44 1787.1699999999998 1085.9 1787.8899999999999 1085.15 1788.1599999999999ZM1083.81 1786.29L1085.19 1786.28L1085.18 1782L1083.8 1782.01L1083.81 1784.15ZM1073.68 1782L1072.3100000000002 1782.01L1072.3100000000002 1786.29L1073.6900000000003 1786.28L1073.6800000000003 1785.47ZM1071.04 1786.33C1071.04 1787.1699999999998 1071.58 1787.8899999999999 1072.34 1788.1599999999999L1069 1788.1599999999999L1069 1783.9999999999998L1071.36 1783.9999999999998L1071.36 1785.2699999999998C1071.1499999999999 1785.5799999999997 1071.04 1785.9499999999998 1071.04 1786.3299999999997Z " fill="#6da0fe" fill-opacity="1" transform="matrix(1,0,0,1,-1069,-1782)"></path></svg>