<svg id="SvgjsSvg1025" xmlns="http://www.w3.org/2000/svg" version="1.1" xmlns:xlink="http://www.w3.org/1999/xlink" xmlns:svgjs="http://svgjs.com/svgjs" width="97" height="22" viewBox="0 0 97 22"><title>Shape</title><desc>Created with Avocode.</desc><defs id="SvgjsDefs1026"></defs><path id="SvgjsPath1027" d="M140.62 26.97C140.44 26.7 140.17000000000002 26.52 139.81 26.52L139.36 26.52L139.36 25.36L144.05 25.36C144.5 25.98 145.04000000000002 26.7 145.58 27.5C146.12 28.4 146.66000000000003 29.29 147.29000000000002 30.36C147.83 31.43 148.38000000000002 32.51 148.92000000000002 33.67C149.55 34.83 150.00000000000003 35.99 150.54000000000002 37.24C150.81000000000003 36.620000000000005 151.08 35.9 151.44000000000003 35.190000000000005C151.80000000000004 34.470000000000006 152.16000000000003 33.760000000000005 152.52000000000004 33.040000000000006C152.88000000000005 32.24000000000001 153.24000000000004 31.520000000000007 153.69000000000003 30.810000000000006C154.14000000000001 30.090000000000007 154.50000000000003 29.380000000000006 154.96000000000004 28.660000000000007C155.41000000000003 28.040000000000006 155.77000000000004 27.410000000000007 156.22000000000003 26.880000000000006C156.67000000000002 26.250000000000007 157.03000000000003 25.800000000000004 157.39000000000001 25.360000000000007L161.72000000000003 25.360000000000007L161.72000000000003 26.520000000000007L161.27000000000004 26.520000000000007C160.91000000000003 26.520000000000007 160.72000000000003 26.700000000000006 160.63000000000005 26.970000000000006C160.54000000000005 27.230000000000008 160.45000000000005 27.590000000000007 160.45000000000005 28.130000000000006L160.45000000000005 44.120000000000005C160.45000000000005 44.660000000000004 160.45000000000005 45.11000000000001 160.63000000000005 45.370000000000005C160.72000000000006 45.550000000000004 160.91000000000005 45.730000000000004 161.27000000000004 45.730000000000004L161.72000000000003 45.730000000000004L161.72000000000003 46.89L156.49000000000004 46.89L156.49000000000004 45.730000000000004L156.85000000000005 45.730000000000004C157.21000000000006 45.730000000000004 157.48000000000005 45.550000000000004 157.57000000000005 45.370000000000005C157.66000000000005 45.11000000000001 157.75000000000006 44.660000000000004 157.75000000000006 44.120000000000005L157.75000000000006 27.590000000000003C157.30000000000007 28.040000000000003 156.85000000000005 28.660000000000004 156.49000000000007 29.290000000000003C156.04000000000008 29.910000000000004 155.59000000000006 30.630000000000003 155.14000000000007 31.430000000000003C154.69000000000008 32.150000000000006 154.32000000000008 32.95 153.87000000000006 33.85C153.42000000000007 34.65 153.06000000000006 35.45 152.70000000000007 36.35C152.25000000000009 37.15 151.89000000000007 37.96 151.5300000000001 38.760000000000005C151.17000000000007 39.57000000000001 150.9000000000001 40.370000000000005 150.63000000000008 41.080000000000005L149.55000000000007 41.080000000000005C149.28000000000006 40.28000000000001 148.92000000000007 39.480000000000004 148.56000000000006 38.580000000000005C148.10000000000005 37.690000000000005 147.74000000000007 36.800000000000004 147.29000000000005 35.900000000000006C146.84000000000006 35.010000000000005 146.48000000000005 34.11000000000001 146.03000000000006 33.220000000000006C145.58000000000007 32.42000000000001 145.13000000000005 31.610000000000007 144.68000000000006 30.810000000000006C144.23000000000008 30.090000000000007 143.87000000000006 29.380000000000006 143.42000000000007 28.840000000000007C143.06000000000006 28.220000000000006 142.70000000000007 27.770000000000007 142.43000000000006 27.410000000000007L142.43000000000006 41.35000000000001C142.43000000000006 42.25000000000001 142.43000000000006 42.96000000000001 142.43000000000006 43.59000000000001C142.52000000000007 44.12000000000001 142.52000000000007 44.57000000000001 142.61000000000007 44.930000000000014C142.70000000000007 45.20000000000002 142.88000000000008 45.460000000000015 143.06000000000006 45.55000000000001C143.24000000000007 45.640000000000015 143.42000000000007 45.73000000000001 143.69000000000005 45.73000000000001L144.14000000000004 45.73000000000001L144.14000000000004 46.89000000000001L139.00000000000006 46.89000000000001L139.00000000000006 45.73000000000001L139.54000000000005 45.73000000000001C139.81000000000006 45.73000000000001 140.08000000000004 45.64000000000001 140.26000000000005 45.55000000000001C140.35000000000005 45.46000000000001 140.53000000000006 45.20000000000001 140.62000000000006 44.930000000000014C140.71000000000006 44.570000000000014 140.71000000000006 44.12000000000001 140.80000000000007 43.59000000000001C140.80000000000007 42.96000000000001 140.80000000000007 42.25000000000001 140.80000000000007 41.35000000000001L140.80000000000007 28.13000000000001C140.80000000000007 27.59000000000001 140.71000000000006 27.23000000000001 140.62000000000006 26.97000000000001ZM196.69 44.93C196.78 45.11 196.78 45.28 196.88 45.37C196.97 45.55 197.06 45.55 197.15 45.64C197.24 45.64 197.42000000000002 45.730000000000004 197.51000000000002 45.730000000000004L197.96 45.730000000000004L197.96 46.89L192.64000000000001 46.89L192.64000000000001 45.730000000000004L193.09 45.730000000000004C193.27 45.730000000000004 193.36 45.64 193.45000000000002 45.64C193.63000000000002 45.55 193.72000000000003 45.55 193.72000000000003 45.37C193.81000000000003 45.279999999999994 193.90000000000003 45.11 193.90000000000003 44.93C193.90000000000003 44.75 193.99000000000004 44.48 193.99000000000004 44.12L193.99000000000004 28.129999999999995C193.99000000000004 27.769999999999996 193.90000000000003 27.499999999999996 193.90000000000003 27.319999999999997C193.90000000000003 27.139999999999997 193.81000000000003 26.969999999999995 193.72000000000003 26.879999999999995C193.72000000000003 26.699999999999996 193.63000000000002 26.699999999999996 193.45000000000002 26.609999999999996C193.36 26.609999999999996 193.27 26.519999999999996 193.09 26.519999999999996L192.64000000000001 26.519999999999996L192.64000000000001 25.359999999999996L197.96 25.359999999999996L197.96 26.519999999999996L197.51000000000002 26.519999999999996C197.42000000000002 26.519999999999996 197.24 26.609999999999996 197.15 26.609999999999996C197.06 26.699999999999996 196.97 26.699999999999996 196.88 26.879999999999995C196.78 26.969999999999995 196.78 27.139999999999997 196.69 27.319999999999997C196.69 27.499999999999996 196.69 27.769999999999996 196.69 28.129999999999995L196.69 40.279999999999994C196.69 40.459999999999994 196.69 40.55 196.69 40.73C196.69 40.91 196.69 41.08 196.6 41.26C196.69 41.08 196.69 41 196.78 40.82C196.88 40.64 196.97 40.46 197.06 40.37C197.51 39.65 197.96 39.029999999999994 198.5 38.309999999999995C199.04 37.599999999999994 199.58 36.8 200.21 36.08C200.84 35.37 201.47 34.65 202.1 33.94C202.73 33.22 203.37 32.51 204.09 31.88C204.72 31.259999999999998 205.35 30.63 205.98 30.09C206.60999999999999 29.47 207.23999999999998 29.02 207.78 28.57L207.78 28.13C207.78 27.77 207.78 27.5 207.78 27.32C207.69 27.14 207.69 26.97 207.6 26.88C207.51 26.7 207.42 26.7 207.32999999999998 26.61C207.23999999999998 26.61 207.05999999999997 26.52 206.96999999999997 26.52L206.51999999999998 26.52L206.51999999999998 25.36L211.74999999999997 25.36L211.74999999999997 26.52L211.38999999999996 26.52C211.20999999999995 26.52 211.11999999999995 26.61 211.02999999999994 26.61C210.84999999999994 26.7 210.75999999999993 26.7 210.75999999999993 26.88C210.66999999999993 26.97 210.57999999999993 27.14 210.57999999999993 27.32C210.57999999999993 27.5 210.48999999999992 27.77 210.48999999999992 28.13L210.48999999999992 44.12C210.48999999999992 44.48 210.57999999999993 44.75 210.57999999999993 44.93C210.57999999999993 45.11 210.66999999999993 45.28 210.75999999999993 45.37C210.75999999999993 45.55 210.84999999999994 45.55 211.02999999999994 45.64C211.11999999999995 45.64 211.20999999999995 45.730000000000004 211.38999999999996 45.730000000000004L211.74999999999997 45.730000000000004L211.74999999999997 46.89L206.51999999999998 46.89L206.51999999999998 45.730000000000004L206.96999999999997 45.730000000000004C207.05999999999997 45.730000000000004 207.23999999999998 45.64 207.32999999999998 45.64C207.42 45.55 207.51 45.55 207.6 45.37C207.69 45.279999999999994 207.69 45.11 207.78 44.93C207.78 44.75 207.78 44.48 207.78 44.12L207.78 30.269999999999996C207.33 30.539999999999996 206.79 31.079999999999995 206.25 31.609999999999996C205.62 32.15 204.99 32.769999999999996 204.36 33.489999999999995C203.64000000000001 34.10999999999999 203 34.919999999999995 202.28 35.71999999999999C201.56 36.529999999999994 200.84 37.32999999999999 200.21 38.22999999999999C199.49 39.11999999999999 198.86 40.00999999999999 198.32000000000002 40.90999999999999C197.69000000000003 41.79999999999999 197.15000000000003 42.59999999999999 196.69000000000003 43.499999999999986L196.69000000000003 44.11999999999998C196.69000000000003 44.47999999999998 196.69000000000003 44.749999999999986 196.69000000000003 44.929999999999986ZM171.68 44.93C171.77 45.11 171.77 45.28 171.86 45.37C171.95000000000002 45.55 172.04000000000002 45.55 172.13000000000002 45.64C172.22000000000003 45.64 172.31000000000003 45.730000000000004 172.49000000000004 45.730000000000004L172.94000000000003 45.730000000000004L172.94000000000003 46.89L167.62000000000003 46.89L167.62000000000003 45.730000000000004L168.07000000000002 45.730000000000004C168.25000000000003 45.730000000000004 168.34000000000003 45.64 168.43000000000004 45.64C168.52000000000004 45.55 168.61000000000004 45.55 168.70000000000005 45.37C168.79000000000005 45.279999999999994 168.79000000000005 45.11 168.88000000000005 44.93C168.88000000000005 44.75 168.88000000000005 44.48 168.88000000000005 44.12L168.88000000000005 28.129999999999995C168.88000000000005 27.769999999999996 168.88000000000005 27.499999999999996 168.88000000000005 27.319999999999997C168.79000000000005 27.139999999999997 168.79000000000005 26.969999999999995 168.70000000000005 26.879999999999995C168.61000000000004 26.699999999999996 168.52000000000004 26.699999999999996 168.43000000000004 26.609999999999996C168.34000000000003 26.609999999999996 168.25000000000003 26.519999999999996 168.07000000000002 26.519999999999996L167.62000000000003 26.519999999999996L167.62000000000003 25.359999999999996L172.94000000000003 25.359999999999996L172.94000000000003 26.519999999999996L172.49000000000004 26.519999999999996C172.31000000000003 26.519999999999996 172.22000000000003 26.609999999999996 172.13000000000002 26.609999999999996C172.04000000000002 26.699999999999996 171.95000000000002 26.699999999999996 171.86 26.879999999999995C171.77 26.969999999999995 171.77 27.139999999999997 171.68 27.319999999999997C171.68 27.499999999999996 171.68 27.769999999999996 171.68 28.129999999999995L171.68 40.279999999999994C171.68 40.459999999999994 171.68 40.55 171.68 40.73C171.68 40.91 171.59 41.08 171.59 41.26C171.59 41.08 171.68 41 171.77 40.82C171.86 40.64 171.95000000000002 40.46 172.04000000000002 40.37C172.49 39.65 172.94000000000003 39.029999999999994 173.48000000000002 38.309999999999995C174.02 37.599999999999994 174.56000000000003 36.8 175.19000000000003 36.08C175.74000000000004 35.37 176.37000000000003 34.65 177.09000000000003 33.94C177.72000000000003 33.22 178.35000000000002 32.51 178.98000000000002 31.88C179.70000000000002 31.259999999999998 180.33 30.63 180.96 30.09C181.59 29.47 182.23000000000002 29.02 182.77 28.57L182.77 28.13C182.77 27.77 182.77 27.5 182.68 27.32C182.68 27.14 182.59 26.97 182.59 26.88C182.5 26.7 182.41 26.7 182.32 26.61C182.23 26.61 182.04999999999998 26.52 181.95999999999998 26.52L181.49999999999997 26.52L181.49999999999997 25.36L186.72999999999996 25.36L186.72999999999996 26.52L186.27999999999997 26.52C186.18999999999997 26.52 186.00999999999996 26.61 185.91999999999996 26.61C185.82999999999996 26.7 185.73999999999995 26.7 185.64999999999995 26.88C185.64999999999995 26.97 185.55999999999995 27.14 185.55999999999995 27.32C185.46999999999994 27.5 185.46999999999994 27.77 185.46999999999994 28.13L185.46999999999994 44.12C185.46999999999994 44.48 185.46999999999994 44.75 185.55999999999995 44.93C185.55999999999995 45.11 185.64999999999995 45.28 185.64999999999995 45.37C185.73999999999995 45.55 185.82999999999996 45.55 185.91999999999996 45.64C186.00999999999996 45.64 186.18999999999997 45.730000000000004 186.27999999999997 45.730000000000004L186.72999999999996 45.730000000000004L186.72999999999996 46.89L181.49999999999997 46.89L181.49999999999997 45.730000000000004L181.95999999999998 45.730000000000004C182.04999999999998 45.730000000000004 182.23 45.64 182.32 45.64C182.41 45.55 182.5 45.55 182.59 45.37C182.59 45.279999999999994 182.68 45.11 182.68 44.93C182.77 44.75 182.77 44.48 182.77 44.12L182.77 30.269999999999996C182.32000000000002 30.539999999999996 181.77 31.079999999999995 181.23000000000002 31.609999999999996C180.60000000000002 32.15 179.97000000000003 32.769999999999996 179.25000000000003 33.489999999999995C178.62000000000003 34.10999999999999 177.90000000000003 34.919999999999995 177.27000000000004 35.71999999999999C176.55000000000004 36.529999999999994 175.83000000000004 37.32999999999999 175.19000000000003 38.22999999999999C174.47000000000003 39.11999999999999 173.84000000000003 40.00999999999999 173.21000000000004 40.90999999999999C172.67000000000004 41.79999999999999 172.13000000000002 42.59999999999999 171.68000000000004 43.499999999999986L171.68000000000004 44.11999999999998C171.68000000000004 44.47999999999998 171.68000000000004 44.749999999999986 171.68000000000004 44.929999999999986ZM222.39 26.7L224.54999999999998 26.7C224.91 26.7 225.08999999999997 26.79 225.17999999999998 27.06C225.26999999999998 27.32 225.35999999999999 27.59 225.35999999999999 27.95L225.35999999999999 44.120000000000005C225.35999999999999 44.480000000000004 225.35999999999999 44.75000000000001 225.35999999999999 44.93000000000001C225.35999999999999 45.11000000000001 225.26999999999998 45.28000000000001 225.17999999999998 45.370000000000005C225.17999999999998 45.550000000000004 225.08999999999997 45.550000000000004 224.90999999999997 45.64000000000001C224.81999999999996 45.64000000000001 224.72999999999996 45.73000000000001 224.54999999999995 45.73000000000001L224.09999999999997 45.73000000000001L224.09999999999997 46.89000000000001L229.32999999999996 46.89000000000001L229.32999999999996 45.73000000000001L228.87999999999997 45.73000000000001C228.78999999999996 45.73000000000001 228.60999999999996 45.64000000000001 228.51999999999995 45.64000000000001C228.42999999999995 45.550000000000004 228.33999999999995 45.550000000000004 228.24999999999994 45.370000000000005C228.15999999999994 45.28 228.15999999999994 45.11000000000001 228.15999999999994 44.93000000000001C228.06999999999994 44.75000000000001 228.06999999999994 44.480000000000004 228.06999999999994 44.120000000000005L228.06999999999994 27.950000000000003C228.06999999999994 27.590000000000003 228.15999999999994 27.320000000000004 228.24999999999994 27.060000000000002C228.33999999999995 26.790000000000003 228.60999999999996 26.700000000000003 228.87999999999994 26.700000000000003L231.03999999999994 26.700000000000003C231.48999999999992 26.700000000000003 231.84999999999994 26.790000000000003 232.29999999999993 26.880000000000003C232.65999999999994 27.060000000000002 233.02999999999992 27.230000000000004 233.38999999999993 27.500000000000004C233.74999999999994 27.770000000000003 234.01999999999992 28.040000000000003 234.28999999999994 28.480000000000004C234.55999999999995 28.840000000000003 234.73999999999992 29.290000000000003 234.91999999999993 29.740000000000006L235.99999999999994 29.740000000000006L235.36999999999995 25.000000000000007C234.91999999999996 25.090000000000007 234.37999999999994 25.180000000000007 233.83999999999995 25.180000000000007C233.20999999999995 25.270000000000007 232.56999999999994 25.270000000000007 232.02999999999994 25.360000000000007C231.39999999999995 25.360000000000007 230.85999999999996 25.360000000000007 230.22999999999993 25.360000000000007C229.68999999999994 25.360000000000007 229.23999999999992 25.360000000000007 228.78999999999994 25.360000000000007L224.63999999999993 25.360000000000007C224.27999999999992 25.360000000000007 223.73999999999992 25.360000000000007 223.19999999999993 25.360000000000007C222.65999999999994 25.360000000000007 222.02999999999994 25.360000000000007 221.48999999999992 25.360000000000007C220.85999999999993 25.270000000000007 220.2199999999999 25.270000000000007 219.67999999999992 25.180000000000007C219.04999999999993 25.180000000000007 218.5999999999999 25.090000000000007 218.05999999999992 25.000000000000007L217.42999999999992 29.74000000000001L218.5999999999999 29.74000000000001C218.6899999999999 29.29000000000001 218.95999999999992 28.84000000000001 219.2299999999999 28.480000000000008C219.4099999999999 28.040000000000006 219.7699999999999 27.770000000000007 220.1299999999999 27.500000000000007C220.39999999999992 27.230000000000008 220.7699999999999 27.060000000000006 221.2199999999999 26.880000000000006C221.57999999999993 26.790000000000006 222.02999999999992 26.700000000000006 222.3899999999999 26.700000000000006Z " fill="#ffffff" fill-opacity="1" transform="matrix(1,0,0,1,-139,-25)"></path></svg>