<svg id="SvgjsSvg1017" xmlns="http://www.w3.org/2000/svg" version="1.1" xmlns:xlink="http://www.w3.org/1999/xlink" xmlns:svgjs="http://svgjs.com/svgjs" width="27" height="26" viewBox="0 0 27 26"><title>Shape</title><desc>Created with Avocode.</desc><defs id="SvgjsDefs1018"></defs><path id="SvgjsPath1019" d="M1275.63 115.05C1275.63 109.52 1270.7800000000002 105 1264.8100000000002 105C1258.8400000000001 105 1254.0000000000002 109.52 1254.0000000000002 115.05C1254.0000000000002 120.58 1258.8400000000001 125.1 1264.8100000000002 125.1C1267.2400000000002 125.1 1269.4800000000002 124.35 1271.2900000000002 123.1L1279.3300000000002 130.57C1279.5300000000002 130.75 1279.7700000000002 130.84 1280.0200000000002 130.84C1280.2600000000002 130.84 1280.5200000000002 130.75 1280.7000000000003 130.57C1281.0800000000004 130.22 1281.0800000000004 129.64 1280.7000000000003 129.28L1272.7400000000002 121.87C1274.5200000000002 120.08 1275.6300000000003 117.69 1275.6300000000003 115.05000000000001ZM1264.81 106.82C1269.69 106.82 1273.6699999999998 110.5 1273.6699999999998 115.05C1273.6699999999998 119.59 1269.7099999999998 123.28 1264.81 123.28C1259.9199999999998 123.28 1255.96 119.58 1255.96 115.05C1255.96 110.52 1259.92 106.82 1264.81 106.82Z " fill="#ffffff" fill-opacity="1" transform="matrix(1,0,0,1,-1254,-105)"></path></svg>