<svg id="SvgjsSvg1129" xmlns="http://www.w3.org/2000/svg" version="1.1" xmlns:xlink="http://www.w3.org/1999/xlink" xmlns:svgjs="http://svgjs.com/svgjs" width="86" height="20" viewBox="0 0 86 20"><title>Shape</title><desc>Created with Avocode.</desc><defs id="SvgjsDefs1130"></defs><path id="SvgjsPath1131" d="M25.44 12.74C25.28 12.51 25.040000000000003 12.35 24.720000000000002 12.35L24.320000000000004 12.35L24.320000000000004 11.32L28.480000000000004 11.32C28.880000000000003 11.870000000000001 29.350000000000005 12.51 29.830000000000005 13.22C30.310000000000006 14.010000000000002 30.790000000000006 14.8 31.350000000000005 15.75C31.830000000000005 16.7 32.31 17.65 32.790000000000006 18.68C33.35000000000001 19.71 33.75000000000001 20.74 34.230000000000004 21.85C34.470000000000006 21.3 34.71 20.67 35.03 20.03C35.35 19.400000000000002 35.67 18.76 35.99 18.130000000000003C36.31 17.42 36.63 16.78 37.03 16.150000000000002C37.43 15.520000000000001 37.75 14.880000000000003 38.15 14.250000000000002C38.55 13.690000000000001 38.87 13.140000000000002 39.269999999999996 12.660000000000002C39.66 12.110000000000001 39.98 11.710000000000003 40.3 11.320000000000002L44.14 11.320000000000002L44.14 12.350000000000001L43.74 12.350000000000001C43.42 12.350000000000001 43.260000000000005 12.510000000000002 43.18 12.740000000000002C43.1 12.980000000000002 43.02 13.300000000000002 43.02 13.770000000000001L43.02 27.950000000000003C43.02 28.430000000000003 43.02 28.830000000000002 43.18 29.060000000000002C43.26 29.220000000000002 43.42 29.380000000000003 43.74 29.380000000000003L44.14 29.380000000000003L44.14 30.410000000000004L39.5 30.410000000000004L39.5 29.380000000000003L39.82 29.380000000000003C40.14 29.380000000000003 40.38 29.220000000000002 40.46 29.060000000000002C40.54 28.830000000000002 40.62 28.430000000000003 40.62 27.950000000000003L40.62 13.300000000000002C40.22 13.690000000000003 39.82 14.250000000000002 39.5 14.800000000000002C39.11 15.360000000000003 38.71 15.990000000000002 38.31 16.700000000000003C37.910000000000004 17.340000000000003 37.59 18.050000000000004 37.190000000000005 18.840000000000003C36.790000000000006 19.560000000000002 36.470000000000006 20.270000000000003 36.150000000000006 21.060000000000002C35.75000000000001 21.770000000000003 35.43000000000001 22.490000000000002 35.11000000000001 23.200000000000003C34.790000000000006 23.910000000000004 34.550000000000004 24.630000000000003 34.31000000000001 25.26L33.35000000000001 25.26C33.11000000000001 24.55 32.790000000000006 23.830000000000002 32.470000000000006 23.040000000000003C32.07000000000001 22.250000000000004 31.750000000000007 21.46 31.350000000000005 20.67C30.950000000000006 19.87 30.630000000000006 19.080000000000002 30.230000000000004 18.290000000000003C29.830000000000005 17.580000000000002 29.430000000000003 16.860000000000003 29.040000000000003 16.150000000000002C28.640000000000004 15.520000000000001 28.320000000000004 14.880000000000003 27.92 14.410000000000002C27.6 13.850000000000001 27.28 13.460000000000003 27.040000000000003 13.140000000000002L27.040000000000003 25.5C27.040000000000003 26.29 27.040000000000003 26.92 27.040000000000003 27.48C27.12 27.95 27.12 28.35 27.200000000000003 28.67C27.28 28.900000000000002 27.44 29.14 27.6 29.220000000000002C27.76 29.3 27.92 29.380000000000003 28.16 29.380000000000003L28.56 29.380000000000003L28.56 30.410000000000004L24 30.410000000000004L24 29.380000000000003L24.48 29.380000000000003C24.72 29.380000000000003 24.96 29.300000000000004 25.12 29.220000000000002C25.2 29.140000000000004 25.36 28.900000000000002 25.44 28.67C25.52 28.35 25.52 27.950000000000003 25.6 27.48C25.6 26.92 25.6 26.29 25.6 25.5L25.6 13.77C25.6 13.299999999999999 25.520000000000003 12.98 25.44 12.74ZM75.15 28.67C75.23 28.830000000000002 75.23 28.98 75.31 29.060000000000002C75.39 29.220000000000002 75.47 29.220000000000002 75.55 29.3C75.63 29.3 75.78999999999999 29.38 75.86999999999999 29.38L76.27 29.38L76.27 30.41L71.56 30.41L71.56 29.38L71.96000000000001 29.38C72.12 29.38 72.19000000000001 29.3 72.27000000000001 29.3C72.43 29.220000000000002 72.51 29.220000000000002 72.51 29.060000000000002C72.59 28.980000000000004 72.67 28.830000000000002 72.67 28.67C72.67 28.51 72.75 28.270000000000003 72.75 27.950000000000003L72.75 13.770000000000003C72.75 13.460000000000003 72.67 13.220000000000002 72.67 13.060000000000002C72.67 12.900000000000002 72.59 12.740000000000002 72.51 12.660000000000002C72.51 12.510000000000002 72.43 12.510000000000002 72.27000000000001 12.430000000000001C72.19000000000001 12.430000000000001 72.12 12.350000000000001 71.96000000000001 12.350000000000001L71.56 12.350000000000001L71.56 11.320000000000002L76.27 11.320000000000002L76.27 12.350000000000001L75.86999999999999 12.350000000000001C75.78999999999999 12.350000000000001 75.63 12.430000000000001 75.55 12.430000000000001C75.47 12.510000000000002 75.39 12.510000000000002 75.31 12.660000000000002C75.23 12.740000000000002 75.23 12.900000000000002 75.15 13.060000000000002C75.15 13.220000000000002 75.15 13.460000000000003 75.15 13.770000000000003L75.15 24.550000000000004C75.15 24.710000000000004 75.15 24.790000000000003 75.15 24.940000000000005C75.15 25.100000000000005 75.15 25.260000000000005 75.07000000000001 25.420000000000005C75.15 25.260000000000005 75.15 25.180000000000007 75.23 25.020000000000007C75.31 24.860000000000007 75.39 24.710000000000008 75.47 24.630000000000006C75.87 23.990000000000006 76.27 23.440000000000005 76.75 22.800000000000004C77.23 22.170000000000005 77.71 21.460000000000004 78.27 20.820000000000004C78.83 20.190000000000005 79.39 19.560000000000002 79.95 18.920000000000005C80.51 18.290000000000006 81.07000000000001 17.650000000000006 81.71000000000001 17.100000000000005C82.27000000000001 16.550000000000004 82.82000000000001 15.990000000000006 83.38000000000001 15.520000000000005C83.94000000000001 14.960000000000004 84.50000000000001 14.570000000000006 84.98 14.170000000000005L84.98 13.770000000000005C84.98 13.460000000000004 84.98 13.220000000000004 84.98 13.060000000000006C84.9 12.900000000000006 84.9 12.740000000000006 84.82000000000001 12.660000000000005C84.74000000000001 12.510000000000005 84.66000000000001 12.510000000000005 84.58000000000001 12.430000000000005C84.50000000000001 12.430000000000005 84.34000000000002 12.350000000000005 84.26000000000002 12.350000000000005L83.86000000000001 12.350000000000005L83.86000000000001 11.320000000000006L88.50000000000001 11.320000000000006L88.50000000000001 12.350000000000005L88.18000000000002 12.350000000000005C88.02000000000002 12.350000000000005 87.94000000000003 12.430000000000005 87.86000000000003 12.430000000000005C87.70000000000003 12.510000000000005 87.62000000000003 12.510000000000005 87.62000000000003 12.660000000000005C87.54000000000003 12.740000000000006 87.46000000000004 12.900000000000006 87.46000000000004 13.060000000000006C87.46000000000004 13.220000000000006 87.38000000000004 13.460000000000006 87.38000000000004 13.770000000000007L87.38000000000004 27.950000000000006C87.38000000000004 28.270000000000007 87.46000000000004 28.510000000000005 87.46000000000004 28.670000000000005C87.46000000000004 28.830000000000005 87.54000000000003 28.980000000000004 87.62000000000003 29.060000000000006C87.62000000000003 29.220000000000006 87.70000000000003 29.220000000000006 87.86000000000003 29.300000000000004C87.94000000000003 29.300000000000004 88.02000000000002 29.380000000000003 88.18000000000002 29.380000000000003L88.50000000000001 29.380000000000003L88.50000000000001 30.410000000000004L83.86000000000001 30.410000000000004L83.86000000000001 29.380000000000003L84.26000000000002 29.380000000000003C84.34000000000002 29.380000000000003 84.50000000000001 29.300000000000004 84.58000000000001 29.300000000000004C84.66000000000001 29.220000000000006 84.74000000000001 29.220000000000006 84.82000000000001 29.060000000000006C84.9 28.980000000000008 84.9 28.830000000000005 84.98 28.670000000000005C84.98 28.510000000000005 84.98 28.270000000000007 84.98 27.950000000000006L84.98 15.670000000000007C84.58 15.910000000000007 84.10000000000001 16.390000000000008 83.62 16.860000000000007C83.06 17.340000000000007 82.5 17.890000000000008 81.95 18.53000000000001C81.31 19.08000000000001 80.75 19.79000000000001 80.11 20.51000000000001C79.47 21.22000000000001 78.83 21.930000000000007 78.27 22.730000000000008C77.63 23.520000000000007 77.07 24.31000000000001 76.58999999999999 25.10000000000001C76.02999999999999 25.890000000000008 75.54999999999998 26.61000000000001 75.14999999999999 27.40000000000001L75.14999999999999 27.95000000000001C75.14999999999999 28.27000000000001 75.14999999999999 28.51000000000001 75.14999999999999 28.67000000000001ZM52.97 28.67C53.05 28.830000000000002 53.05 28.98 53.129999999999995 29.060000000000002C53.209999999999994 29.220000000000002 53.28999999999999 29.220000000000002 53.37 29.3C53.449999999999996 29.3 53.529999999999994 29.38 53.69 29.38L54.089999999999996 29.38L54.089999999999996 30.41L49.379999999999995 30.41L49.379999999999995 29.38L49.779999999999994 29.38C49.93999999999999 29.38 50.019999999999996 29.3 50.099999999999994 29.3C50.17999999999999 29.220000000000002 50.25999999999999 29.220000000000002 50.339999999999996 29.060000000000002C50.419999999999995 28.980000000000004 50.419999999999995 28.830000000000002 50.49999999999999 28.67C50.49999999999999 28.51 50.49999999999999 28.270000000000003 50.49999999999999 27.950000000000003L50.49999999999999 13.770000000000003C50.49999999999999 13.460000000000003 50.49999999999999 13.220000000000002 50.49999999999999 13.060000000000002C50.419999999999995 12.900000000000002 50.419999999999995 12.740000000000002 50.339999999999996 12.660000000000002C50.26 12.510000000000002 50.18 12.510000000000002 50.099999999999994 12.430000000000001C50.019999999999996 12.430000000000001 49.94 12.350000000000001 49.779999999999994 12.350000000000001L49.379999999999995 12.350000000000001L49.379999999999995 11.320000000000002L54.089999999999996 11.320000000000002L54.089999999999996 12.350000000000001L53.69 12.350000000000001C53.53 12.350000000000001 53.449999999999996 12.430000000000001 53.37 12.430000000000001C53.29 12.510000000000002 53.21 12.510000000000002 53.129999999999995 12.660000000000002C53.05 12.740000000000002 53.05 12.900000000000002 52.97 13.060000000000002C52.97 13.220000000000002 52.97 13.460000000000003 52.97 13.770000000000003L52.97 24.550000000000004C52.97 24.710000000000004 52.97 24.790000000000003 52.97 24.940000000000005C52.97 25.100000000000005 52.89 25.260000000000005 52.89 25.420000000000005C52.89 25.260000000000005 52.97 25.180000000000007 53.05 25.020000000000007C53.129999999999995 24.860000000000007 53.209999999999994 24.710000000000008 53.29 24.630000000000006C53.69 23.990000000000006 54.089999999999996 23.440000000000005 54.57 22.800000000000004C55.05 22.170000000000005 55.53 21.460000000000004 56.09 20.820000000000004C56.57 20.190000000000005 57.13 19.560000000000002 57.77 18.920000000000005C58.330000000000005 18.290000000000006 58.89 17.650000000000006 59.45 17.100000000000005C60.09 16.550000000000004 60.650000000000006 15.990000000000006 61.2 15.520000000000005C61.760000000000005 14.960000000000004 62.32 14.570000000000006 62.800000000000004 14.170000000000005L62.800000000000004 13.770000000000005C62.800000000000004 13.460000000000004 62.800000000000004 13.220000000000004 62.720000000000006 13.060000000000006C62.720000000000006 12.900000000000006 62.64000000000001 12.740000000000006 62.64000000000001 12.660000000000005C62.56000000000001 12.510000000000005 62.48000000000001 12.510000000000005 62.400000000000006 12.430000000000005C62.32000000000001 12.430000000000005 62.160000000000004 12.350000000000005 62.080000000000005 12.350000000000005L61.68000000000001 12.350000000000005L61.68000000000001 11.320000000000006L66.32000000000001 11.320000000000006L66.32000000000001 12.350000000000005L65.92 12.350000000000005C65.84 12.350000000000005 65.68 12.430000000000005 65.60000000000001 12.430000000000005C65.52000000000001 12.510000000000005 65.44000000000001 12.510000000000005 65.36000000000001 12.660000000000005C65.36000000000001 12.740000000000006 65.28000000000002 12.900000000000006 65.28000000000002 13.060000000000006C65.20000000000002 13.220000000000006 65.20000000000002 13.460000000000006 65.20000000000002 13.770000000000007L65.20000000000002 27.950000000000006C65.20000000000002 28.270000000000007 65.20000000000002 28.510000000000005 65.28000000000002 28.670000000000005C65.28000000000002 28.830000000000005 65.36000000000001 28.980000000000004 65.36000000000001 29.060000000000006C65.44000000000001 29.220000000000006 65.52000000000001 29.220000000000006 65.60000000000001 29.300000000000004C65.68 29.300000000000004 65.84 29.380000000000003 65.92 29.380000000000003L66.32000000000001 29.380000000000003L66.32000000000001 30.410000000000004L61.68000000000001 30.410000000000004L61.68000000000001 29.380000000000003L62.080000000000005 29.380000000000003C62.160000000000004 29.380000000000003 62.32000000000001 29.300000000000004 62.400000000000006 29.300000000000004C62.480000000000004 29.220000000000006 62.56 29.220000000000006 62.64000000000001 29.060000000000006C62.64000000000001 28.980000000000008 62.720000000000006 28.830000000000005 62.720000000000006 28.670000000000005C62.800000000000004 28.510000000000005 62.800000000000004 28.270000000000007 62.800000000000004 27.950000000000006L62.800000000000004 15.670000000000007C62.400000000000006 15.910000000000007 61.92 16.390000000000008 61.440000000000005 16.860000000000007C60.88 17.340000000000007 60.330000000000005 17.890000000000008 59.690000000000005 18.53000000000001C59.13 19.08000000000001 58.49 19.79000000000001 57.93000000000001 20.51000000000001C57.290000000000006 21.22000000000001 56.650000000000006 21.930000000000007 56.09 22.730000000000008C55.45 23.520000000000007 54.89 24.31000000000001 54.330000000000005 25.10000000000001C53.85000000000001 25.890000000000008 53.370000000000005 26.61000000000001 52.970000000000006 27.40000000000001L52.970000000000006 27.95000000000001C52.970000000000006 28.27000000000001 52.970000000000006 28.51000000000001 52.970000000000006 28.67000000000001ZM97.93 12.51L99.85000000000001 12.51C100.17 12.51 100.33000000000001 12.58 100.41000000000001 12.82C100.49000000000001 13.06 100.57000000000001 13.3 100.57000000000001 13.61L100.57000000000001 27.95C100.57000000000001 28.27 100.57000000000001 28.509999999999998 100.57000000000001 28.669999999999998C100.57000000000001 28.83 100.49000000000001 28.979999999999997 100.41000000000001 29.06C100.41000000000001 29.22 100.33000000000001 29.22 100.17000000000002 29.299999999999997C100.09000000000002 29.299999999999997 100.01000000000002 29.379999999999995 99.85000000000002 29.379999999999995L99.45000000000002 29.379999999999995L99.45000000000002 30.409999999999997L104.09000000000002 30.409999999999997L104.09000000000002 29.379999999999995L103.69000000000001 29.379999999999995C103.61000000000001 29.379999999999995 103.45000000000002 29.299999999999997 103.37000000000002 29.299999999999997C103.29000000000002 29.22 103.21000000000002 29.22 103.13000000000002 29.06C103.05000000000003 28.98 103.05000000000003 28.83 103.05000000000003 28.669999999999998C102.97000000000003 28.509999999999998 102.97000000000003 28.27 102.97000000000003 27.95L102.97000000000003 13.61C102.97000000000003 13.299999999999999 103.05000000000003 13.059999999999999 103.13000000000002 12.82C103.21000000000002 12.58 103.45000000000002 12.51 103.69000000000003 12.51L105.60000000000002 12.51C106.00000000000003 12.51 106.32000000000002 12.58 106.72000000000003 12.66C107.04000000000002 12.82 107.36000000000003 12.98 107.68000000000002 13.22C108.00000000000001 13.46 108.24000000000002 13.690000000000001 108.48000000000002 14.09C108.72000000000001 14.41 108.88000000000002 14.8 109.04000000000002 15.2L110.00000000000001 15.2L109.44000000000001 11C109.04 11.08 108.56000000000002 11.16 108.08000000000001 11.16C107.52000000000001 11.24 106.96000000000001 11.24 106.48000000000002 11.32C105.92000000000002 11.32 105.44000000000001 11.32 104.88000000000002 11.32C104.41000000000003 11.32 104.01000000000002 11.32 103.61000000000003 11.32L99.93000000000002 11.32C99.61000000000003 11.32 99.13000000000002 11.32 98.65000000000002 11.32C98.17000000000002 11.32 97.61000000000001 11.32 97.13000000000002 11.32C96.57000000000002 11.24 96.01000000000002 11.24 95.53000000000003 11.16C94.97000000000003 11.16 94.58000000000003 11.08 94.10000000000002 11L93.54000000000002 15.2L94.58000000000003 15.2C94.65000000000002 14.799999999999999 94.89000000000003 14.41 95.13000000000002 14.09C95.29000000000002 13.69 95.61000000000003 13.459999999999999 95.93000000000002 13.22C96.17000000000002 12.98 96.49000000000002 12.82 96.89000000000001 12.66C97.21000000000001 12.58 97.61000000000001 12.51 97.93000000000002 12.51Z " fill="#000000" fill-opacity="1" transform="matrix(1,0,0,1,-24,-11)"></path></svg>