<svg xmlns:xlink="http://www.w3.org/1999/xlink" xmlns:svgjs="http://svgjs.com/svgjs" id="SvgjsSvg1072"
     xmlns="http://www.w3.org/2000/svg" version="1.1" width="53" height="53" viewBox="0 0 53 53">
    <title>Shape</title>
    <desc>Created with Avocode.</desc>
    <defs id="SvgjsDefs1073"></defs>
    <path id="SvgjsPath1074"
          d="M802.5 1132C787.86 1132 776 1143.87 776 1158.5C776 1173.13 787.86 1185 802.5 1185C817.13 1185 829 1173.13 829 1158.5C829 1143.86 817.13 1132 802.5 1132Z "
          fill="#6da0fe" fill-opacity="1" transform="matrix(1,0,0,1,-776,-1132)"></path>
    <path id="SvgjsPath1075"
          d="M808.5 1163.5C806.5 1165.49 806.5 1168.72 808.5 1170.71C810.51 1172.71 813.75 1172.71 815.75 1170.71C817.75 1168.72 817.75 1165.49 815.75 1163.5C813.75 1161.5 810.5 1161.5 808.5 1163.5ZM811.98 1167.86C811.7 1167.86 811.5 1167.6499999999999 811.5 1167.3899999999999L811.5 1164.1899999999998C811.5 1163.9299999999998 811.71 1163.7199999999998 811.98 1163.7199999999998C812.25 1163.7199999999998 812.45 1163.9299999999998 812.45 1164.1899999999998L812.45 1166.9099999999999L814.62 1166.9099999999999C814.89 1166.9099999999999 815.1 1167.12 815.1 1167.3899999999999C815.1 1167.6499999999999 814.9 1167.86 814.63 1167.86Z "
          fill="#ffffff" fill-opacity="1" transform="matrix(1,0,0,1,-776,-1132)"></path>
    <path id="SvgjsPath1076"
          d="M810.6 1150.62C810.9300000000001 1150.62 811.2 1150.35 811.2 1150.02L811.2 1146.6C811.2 1146.27 810.9300000000001 1146 810.6 1146C810.27 1146 810 1146.27 810 1146.6L810 1150.02C810 1150.35 810.27 1150.62 810.6 1150.62Z "
          fill="#ffffff" fill-opacity="1" transform="matrix(1,0,0,1,-776,-1132)"></path>
    <path id="SvgjsPath1077"
          d="M804.6 1150.62C804.9300000000001 1150.62 805.2 1150.35 805.2 1150.02L805.2 1146.6C805.2 1146.27 804.9300000000001 1146 804.6 1146C804.27 1146 804 1146.27 804 1146.6L804 1150.02C804.02 1150.35 804.29 1150.62 804.6 1150.62Z "
          fill="#ffffff" fill-opacity="1" transform="matrix(1,0,0,1,-776,-1132)"></path>
    <path id="SvgjsPath1078"
          d="M799.6 1150.62C799.9300000000001 1150.62 800.2 1150.35 800.2 1150.02L800.2 1146.6C800.2 1146.27 799.9300000000001 1146 799.6 1146C799.27 1146 799 1146.27 799 1146.6L799 1150.02C799 1150.35 799.27 1150.62 799.6 1150.62Z "
          fill="#ffffff" fill-opacity="1" transform="matrix(1,0,0,1,-776,-1132)"></path>
    <path id="SvgjsPath1079"
          d="M794.6 1150.62C794.9300000000001 1150.62 795.2 1150.35 795.2 1150.02L795.2 1146.6C795.2 1146.27 794.9300000000001 1146 794.6 1146C794.27 1146 794 1146.27 794 1146.6L794 1150.02C794 1150.35 794.27 1150.62 794.6 1150.62Z "
          fill="#ffffff" fill-opacity="1" transform="matrix(1,0,0,1,-776,-1132)"></path>
    <path id="SvgjsPath1080"
          d="M813.38 1148L812.04 1148L812.04 1149.67C812.04 1150.66 811.23 1151.46 810.24 1151.46C809.25 1151.46 808.44 1150.66 808.44 1149.67L808.44 1148L806.6600000000001 1148L806.6600000000001 1149.67C806.6600000000001 1150.66 805.8500000000001 1151.46 804.8600000000001 1151.46C803.8700000000001 1151.46 803.0600000000002 1150.66 803.0600000000002 1149.67L803.0600000000002 1148L801.3200000000002 1148L801.3200000000002 1149.67C801.3200000000002 1150.66 800.5100000000002 1151.46 799.5200000000002 1151.46C798.5300000000002 1151.46 797.7200000000003 1150.66 797.7200000000003 1149.67L797.7200000000003 1148L795.9400000000003 1148L795.9400000000003 1149.67C795.9400000000003 1150.66 795.1300000000003 1151.46 794.1400000000003 1151.46C793.1500000000003 1151.46 792.3300000000004 1150.66 792.3300000000004 1149.67L792.3300000000004 1148L791.0000000000003 1148L791.0000000000003 1152.91L813.3800000000003 1152.91Z "
          fill="#ffffff" fill-opacity="1" transform="matrix(1,0,0,1,-776,-1132)"></path>
    <path id="SvgjsPath1081"
          d="M813.4 1160.37L813.4 1154L791 1154L791 1168.17L805.82 1168.17C805.22 1166.04 805.75 1163.67 807.4300000000001 1162.01C809.0500000000001 1160.4 811.33 1159.85 813.4000000000001 1160.37ZM810.07 1156.45L810.07 1158.8L807.09 1158.8L807.09 1156.45ZM794.31 1164.35L794.31 1162.02L797.3 1162.02L797.3 1164.35ZM794.31 1158.78L794.31 1156.45L797.3 1156.45L797.3 1158.78ZM800.71 1164.35L800.71 1162.02L803.7 1162.02L803.7 1164.35ZM800.71 1158.78L800.71 1156.45L803.7 1156.45L803.7 1158.78Z "
          fill="#ffffff" fill-opacity="1" transform="matrix(1,0,0,1,-776,-1132)"></path>
</svg>