<svg xmlns:xlink="http://www.w3.org/1999/xlink" xmlns:svgjs="http://svgjs.com/svgjs" id="SvgjsSvg1093"
     xmlns="http://www.w3.org/2000/svg" version="1.1" width="53" height="53" viewBox="0 0 53 53">
    <title>Shape</title>
    <desc>Created with Avocode.</desc>
    <defs id="SvgjsDefs1094"></defs>
    <path id="SvgjsPath1095"
          d="M1099.5 1215C1084.86 1215 1073 1226.87 1073 1241.5C1073 1256.13 1084.86 1268 1099.5 1268C1114.13 1268 1126 1256.13 1126 1241.5C1126 1226.86 1114.13 1215 1099.5 1215Z "
          fill="#6da0fe" fill-opacity="1" transform="matrix(1,0,0,1,-1073,-1215)"></path>
    <path id="SvgjsPath1096"
          d="M1090 1228L1090 1255L1111.54 1255L1111.54 1234.56L1104.86 1228ZM1095.79 1248.6C1095.7 1248.6699999999998 1095.6 1248.6999999999998 1095.5 1248.6999999999998C1095.38 1248.6999999999998 1095.26 1248.6599999999999 1095.18 1248.5699999999997L1094.26 1247.6699999999996C1094.08 1247.4899999999996 1094.08 1247.2099999999996 1094.26 1247.0299999999995C1094.44 1246.8599999999994 1094.73 1246.8599999999994 1094.91 1247.0299999999995L1095.53 1247.6499999999994L1097.5 1246.0999999999995C1097.7 1245.9399999999994 1097.99 1245.9699999999993 1098.15 1246.1699999999994C1098.3100000000002 1246.3599999999994 1098.2800000000002 1246.6499999999994 1098.0800000000002 1246.7999999999995ZM1095.79 1243.65C1095.7 1243.72 1095.6 1243.75 1095.5 1243.75C1095.38 1243.75 1095.26 1243.71 1095.18 1243.62L1094.26 1242.7199999999998C1094.08 1242.5399999999997 1094.08 1242.2599999999998 1094.26 1242.0799999999997C1094.44 1241.9099999999996 1094.73 1241.9099999999996 1094.91 1242.0799999999997L1095.53 1242.6999999999996L1097.5 1241.1499999999996C1097.7 1240.9899999999996 1097.99 1241.0199999999995 1098.15 1241.2199999999996C1098.3100000000002 1241.4099999999996 1098.2800000000002 1241.6999999999996 1098.0800000000002 1241.8499999999997ZM1095.79 1238.7C1095.7 1238.77 1095.6 1238.8 1095.5 1238.8C1095.38 1238.8 1095.26 1238.76 1095.18 1238.6699999999998L1094.26 1237.7699999999998C1094.08 1237.5899999999997 1094.08 1237.3099999999997 1094.26 1237.1299999999997C1094.44 1236.9599999999996 1094.73 1236.9599999999996 1094.91 1237.1299999999997L1095.53 1237.7499999999995L1097.5 1236.1999999999996C1097.7 1236.0399999999995 1097.99 1236.0699999999995 1098.15 1236.2699999999995C1098.3100000000002 1236.4599999999996 1098.2800000000002 1236.7499999999995 1098.0800000000002 1236.8999999999996ZM1099.17 1248.25C1098.91 1248.25 1098.71 1248.05 1098.71 1247.8C1098.71 1247.55 1098.91 1247.35 1099.17 1247.35L1106.5 1247.35C1106.75 1247.35 1106.96 1247.55 1106.96 1247.8C1106.96 1248.05 1106.75 1248.25 1106.5 1248.25ZM1099.17 1243.3C1098.91 1243.3 1098.71 1243.1 1098.71 1242.85C1098.71 1242.6 1098.91 1242.3999999999999 1099.17 1242.3999999999999L1106.5 1242.3999999999999C1106.75 1242.3999999999999 1106.96 1242.6 1106.96 1242.85C1106.96 1243.1 1106.75 1243.3 1106.5 1243.3ZM1099.17 1238.35C1098.91 1238.35 1098.71 1238.1499999999999 1098.71 1237.8999999999999C1098.71 1237.6499999999999 1098.91 1237.4499999999998 1099.17 1237.4499999999998L1106.5 1237.4499999999998C1106.75 1237.4499999999998 1106.96 1237.6499999999999 1106.96 1237.8999999999999C1106.96 1238.1499999999999 1106.75 1238.35 1106.5 1238.35ZM1104.21 1228.9L1110.63 1235.2L1104.21 1235.2Z "
          fill="#ffffff" fill-opacity="1" transform="matrix(1,0,0,1,-1073,-1215)"></path>
</svg>