<svg xmlns:xlink="http://www.w3.org/1999/xlink" xmlns:svgjs="http://svgjs.com/svgjs" id="SvgjsSvg1058"
     xmlns="http://www.w3.org/2000/svg" version="1.1" width="91" height="91" viewBox="0 0 91 91">
    <title>Oval 80</title>
    <desc>Created with Avocode.</desc>
    <defs id="SvgjsDefs1059"></defs>
    <path id="SvgjsPath1060"
          d="M1213 842.5C1213 817.92333 1232.92333 798 1257.5 798C1282.07667 798 1302 817.92333 1302 842.5C1302 867.07667 1282.07667 887 1257.5 887C1232.92333 887 1213 867.07667 1213 842.5Z "
          fill-opacity="0" fill="#ffffff" stroke-dasharray="0" stroke-linejoin="miter" stroke-linecap="butt"
          stroke-opacity="1" stroke="#6da0fe" stroke-miterlimit="50" stroke-width="2"
          transform="matrix(1,0,0,1,-1212,-797)"></path>
    <path id="SvgjsPath1061"
          d="M1268.87 825.29L1268.87 823.74C1268.87 822.78 1268.09 822 1267.12 822L1266.4899999999998 822C1265.5299999999997 822 1264.7499999999998 822.78 1264.7499999999998 823.74L1264.7499999999998 825.29L1252.5699999999997 825.29L1252.5699999999997 823.74C1252.5699999999997 822.78 1251.7899999999997 822 1250.8299999999997 822L1250.1899999999996 822C1249.2299999999996 822 1248.4499999999996 822.78 1248.4499999999996 823.74L1248.4499999999996 825.29L1245.6999999999996 825.29C1243.1099999999997 825.29 1240.9999999999995 827.39 1240.9999999999995 829.98L1240.9999999999995 857.87C1240.9999999999995 860.46 1243.1099999999994 862.57 1245.6999999999996 862.57L1270.9199999999996 862.57C1273.5099999999995 862.57 1275.6199999999997 860.46 1275.6199999999997 857.87L1275.6199999999997 829.98C1275.6199999999997 827.39 1273.5099999999998 825.29 1270.9199999999996 825.29ZM1270.92 859.74L1245.7 859.74C1244.67 859.74 1243.8300000000002 858.9 1243.8300000000002 857.87L1243.8300000000002 829.98C1243.8300000000002 828.95 1244.67 828.11 1245.7 828.11L1248.45 828.11L1248.45 830.33C1248.45 831.2900000000001 1249.23 832.07 1250.19 832.07L1250.8300000000002 832.07C1251.7900000000002 832.07 1252.5700000000002 831.2900000000001 1252.5700000000002 830.33L1252.5700000000002 828.11L1264.7500000000002 828.11L1264.7500000000002 830.33C1264.7500000000002 831.2900000000001 1265.5300000000002 832.07 1266.4900000000002 832.07L1267.1200000000003 832.07C1268.0900000000004 832.07 1268.8700000000003 831.2900000000001 1268.8700000000003 830.33L1268.8700000000003 828.11L1270.9200000000003 828.11C1271.9500000000003 828.11 1272.7900000000002 828.95 1272.7900000000002 829.98L1272.7900000000002 857.87C1272.7900000000002 858.9 1271.9500000000003 859.74 1270.9200000000003 859.74Z "
          fill="#6da0fe" fill-opacity="1" transform="matrix(1,0,0,1,-1212,-797)"></path>
    <path id="SvgjsPath1062"
          d="M1268.02 836L1249.42 836C1248.63 836 1248 836.63 1248 837.41C1248 838.1899999999999 1248.63 838.8299999999999 1249.42 838.8299999999999L1268.02 838.8299999999999C1268.8 838.8299999999999 1269.44 838.1899999999999 1269.44 837.41C1269.44 836.63 1268.8 836 1268.02 836Z "
          fill="#6da0fe" fill-opacity="1" transform="matrix(1,0,0,1,-1212,-797)"></path>
    <path id="SvgjsPath1063"
          d="M1267.02 842L1248.42 842C1247.63 842 1247 842.63 1247 843.41C1247 844.1899999999999 1247.63 844.8299999999999 1248.42 844.8299999999999L1267.02 844.8299999999999C1267.8 844.8299999999999 1268.44 844.1899999999999 1268.44 843.41C1268.44 842.63 1267.8 842 1267.02 842Z "
          fill="#6da0fe" fill-opacity="1" transform="matrix(1,0,0,1,-1212,-797)"></path>
    <path id="SvgjsPath1064"
          d="M1267.02 847L1248.42 847C1247.63 847 1247 847.63 1247 848.41C1247 849.1899999999999 1247.63 849.8299999999999 1248.42 849.8299999999999L1267.02 849.8299999999999C1267.8 849.8299999999999 1268.44 849.1899999999999 1268.44 848.41C1268.44 847.63 1267.8 847 1267.02 847Z "
          fill="#6da0fe" fill-opacity="1" transform="matrix(1,0,0,1,-1212,-797)"></path>
    <path id="SvgjsPath1065"
          d="M1267.02 853L1248.42 853C1247.63 853 1247 853.63 1247 854.41C1247 855.1899999999999 1247.63 855.8299999999999 1248.42 855.8299999999999L1267.02 855.8299999999999C1267.8 855.8299999999999 1268.44 855.1899999999999 1268.44 854.41C1268.44 853.63 1267.8 853 1267.02 853Z "
          fill="#6da0fe" fill-opacity="1" transform="matrix(1,0,0,1,-1212,-797)"></path>
</svg>