<svg xmlns:xlink="http://www.w3.org/1999/xlink" xmlns:svgjs="http://svgjs.com/svgjs" id="SvgjsSvg1104"
     xmlns="http://www.w3.org/2000/svg" version="1.1" width="21" height="21" viewBox="0 0 21 21">
    <title>Shape</title>
    <desc>Created with Avocode.</desc>
    <defs id="SvgjsDefs1105"></defs>
    <path id="SvgjsPath1106"
          d="M1071.56 1691C1070.84 1691 1070.25 1691.59 1070.25 1692.31L1070.25 1701.5L1066.31 1701.5C1065.59 1701.5 1065 1702.09 1065 1702.81L1065 1708.06C1065 1710.23 1066.77 1712 1068.94 1712L1082.06 1712C1084.23 1712 1086 1710.23 1086 1708.06L1086 1692.31C1086 1691.59 1085.41 1691 1084.69 1691ZM1074.19 1704.78C1073.46 1704.78 1072.88 1704.19 1072.88 1703.47C1072.88 1702.74 1073.46 1702.16 1074.19 1702.16L1082.06 1702.16C1082.79 1702.16 1083.3799999999999 1702.74 1083.3799999999999 1703.47C1083.3799999999999 1704.19 1082.79 1704.78 1082.06 1704.78ZM1079.44 1694.28C1080.16 1694.28 1080.75 1694.87 1080.75 1695.59C1080.75 1696.32 1080.16 1696.9099999999999 1079.44 1696.9099999999999L1076.81 1696.9099999999999C1076.09 1696.9099999999999 1075.5 1696.32 1075.5 1695.59C1075.5 1694.87 1076.09 1694.28 1076.81 1694.28ZM1068.94 1709.38C1068.21 1709.38 1067.63 1708.7900000000002 1067.63 1708.0600000000002L1067.63 1704.13L1070.25 1704.13L1070.25 1708.0600000000002C1070.25 1708.7900000000002 1069.66 1709.38 1068.94 1709.38ZM1074.19 1700.84C1073.46 1700.84 1072.88 1700.26 1072.88 1699.53C1072.88 1698.81 1073.46 1698.22 1074.19 1698.22L1082.06 1698.22C1082.79 1698.22 1083.3799999999999 1698.81 1083.3799999999999 1699.53C1083.3799999999999 1700.26 1082.79 1700.84 1082.06 1700.84Z "
          fill="#80abfb" fill-opacity="1" transform="matrix(1,0,0,1,-1065,-1691)"></path>
</svg>