<svg xmlns:xlink="http://www.w3.org/1999/xlink" xmlns:svgjs="http://svgjs.com/svgjs" id="SvgjsSvg1107"
     xmlns="http://www.w3.org/2000/svg" version="1.1" width="21" height="18" viewBox="0 0 21 18">
    <title>Shape</title>
    <desc>Created with Avocode.</desc>
    <defs id="SvgjsDefs1108"></defs>
    <path id="SvgjsPath1109"
          d="M1077.25 1749.35C1075.1 1749.35 1073.35 1751.09 1073.35 1753.2199999999998L1073.35 1756.3899999999999L1073.57 1756.4599999999998C1075.6299999999999 1757.1 1077.4099999999999 1757.3099999999997 1078.8799999999999 1757.3099999999997C1081.7399999999998 1757.3099999999997 1083.4099999999999 1756.4999999999998 1083.51 1756.4499999999998L1083.71 1756.35L1083.73 1756.35L1083.73 1753.2199999999998C1083.73 1751.0899999999997 1081.98 1749.35 1079.83 1749.35ZM1082.31 1746.24C1082.28 1747.25 1081.84 1748.17 1081.1499999999999 1748.83C1083.06 1749.3899999999999 1084.4599999999998 1751.1499999999999 1084.4599999999998 1753.22L1084.4599999999998 1754.18C1086.9899999999998 1754.0900000000001 1088.4499999999998 1753.38 1088.5499999999997 1753.3300000000002L1088.7499999999998 1753.2300000000002L1088.7699999999998 1753.2300000000002L1088.7699999999998 1750.1000000000001C1088.7699999999998 1747.97 1087.0199999999998 1746.2400000000002 1084.8699999999997 1746.2400000000002ZM1081.59 1746.13C1081.59 1744.46 1080.22 1743.1100000000001 1078.54 1743.1100000000001C1076.86 1743.1100000000001 1075.49 1744.47 1075.49 1746.13C1075.49 1747.8000000000002 1076.86 1749.15 1078.54 1749.15C1080.22 1749.15 1081.59 1747.8000000000002 1081.59 1746.13ZM1082.29 1745.75C1082.68 1745.93 1083.12 1746.03 1083.58 1746.03C1085.26 1746.03 1086.6299999999999 1744.68 1086.6299999999999 1743.02C1086.6299999999999 1741.35 1085.26 1740 1083.58 1740C1081.9099999999999 1740 1080.56 1741.33 1080.54 1742.97C1081.5 1743.57 1082.17 1744.58 1082.29 1745.75ZM1074.81 1745.57C1074.96 1744.6 1075.49 1743.76 1076.23 1743.1899999999998C1076.24 1743.1299999999999 1076.24 1743.07 1076.24 1743.0199999999998C1076.24 1741.3499999999997 1074.88 1739.9999999999998 1073.19 1739.9999999999998C1071.51 1739.9999999999998 1070.15 1741.3499999999997 1070.15 1743.0199999999998C1070.15 1744.6799999999998 1071.51 1746.0299999999997 1073.19 1746.0299999999997C1073.79 1746.0299999999997 1074.3400000000001 1745.8599999999997 1074.81 1745.5699999999997ZM1075.93 1748.83C1074.02 1749.3899999999999 1072.6200000000001 1751.1499999999999 1072.6200000000001 1753.22L1072.6200000000001 1754.17C1071.3400000000001 1754.0900000000001 1069.8700000000001 1753.8600000000001 1068.23 1753.3500000000001L1068.01 1753.2800000000002L1068 1753.2300000000002L1068 1750.1000000000001C1068 1747.97 1069.75 1746.2400000000002 1071.9 1746.2400000000002L1074.49 1746.2400000000002C1074.58 1746.2400000000002 1074.68 1746.2500000000002 1074.77 1746.2500000000002C1074.8 1747.2600000000002 1075.24 1748.1700000000003 1075.93 1748.8300000000002Z "
          fill="#80abfb" fill-opacity="1" transform="matrix(1,0,0,1,-1068,-1740)"></path>
</svg>