<svg xmlns:xlink="http://www.w3.org/1999/xlink" xmlns:svgjs="http://svgjs.com/svgjs" id="SvgjsSvg1097"
     xmlns="http://www.w3.org/2000/svg" version="1.1" width="22" height="22" viewBox="0 0 22 22">
    <title>Shape</title>
    <desc>Created with Avocode.</desc>
    <defs id="SvgjsDefs1098"></defs>
    <path id="SvgjsPath1099"
          d="M1085.74 1602C1085.3700000000001 1602 1085.05 1602.25 1084.92 1602.6C1083.39 1603.3999999999999 1079.8300000000002 1605.2099999999998 1077.2 1606.2199999999998C1072.29 1608.1 1068 1608.6 1068 1608.6L1068 1615.6999999999998C1068 1615.6999999999998 1069.47 1615.87 1071.66 1616.3899999999999L1071.69 1623.0099999999998C1071.7 1623.5299999999997 1072.13 1623.9499999999998 1072.64 1623.9499999999998L1074.18 1623.9399999999998C1074.69 1623.9399999999998 1075.1200000000001 1623.5099999999998 1075.1100000000001 1622.9899999999998L1075.0800000000002 1617.3399999999997C1075.7700000000002 1617.5599999999997 1076.4800000000002 1617.8099999999997 1077.2 1618.0899999999997C1079.8300000000002 1619.0899999999997 1083.39 1620.9099999999996 1084.92 1621.7099999999996C1085.0600000000002 1622.0499999999995 1085.3700000000001 1622.2999999999995 1085.74 1622.2999999999995C1086.23 1622.2999999999995 1086.63 1621.8799999999994 1086.63 1621.3499999999995L1086.63 1602.9499999999994C1086.6200000000001 1602.4299999999994 1086.23 1601.9999999999993 1085.74 1601.9999999999993Z "
          fill="#80abfb" fill-opacity="1" transform="matrix(1,0,0,1,-1065,-1602)"></path>
    <path id="SvgjsPath1100" d="M1065 1616L1065 1609L1068 1609L1068 1616Z " fill="#80abfb" fill-opacity="1"
          transform="matrix(1,0,0,1,-1065,-1602)"></path>
</svg>