<svg xmlns:xlink="http://www.w3.org/1999/xlink" xmlns:svgjs="http://svgjs.com/svgjs" id="SvgjsSvg1101"
     xmlns="http://www.w3.org/2000/svg" version="1.1" width="19" height="26" viewBox="0 0 19 26">
    <title>Shape</title>
    <desc>Created with Avocode.</desc>
    <defs id="SvgjsDefs1102"></defs>
    <path id="SvgjsPath1103"
          d="M1080.32 1656L1080.33 1648C1080.33 1645.79 1078.55 1644 1076.33 1644C1074.12 1644 1072.33 1645.79 1072.33 1648L1072.33 1656C1072.33 1658.21 1074.12 1660 1076.33 1660C1078.55 1660 1080.32 1658.21 1080.32 1656ZM1083.4 1656L1085.67 1656C1085.67 1660.56 1082.04 1664.32 1077.67 1664.96L1077.67 1669.33L1075 1669.33L1075 1664.96C1070.63 1664.31 1067 1660.55 1067 1656L1069.27 1656C1069.27 1660 1072.65 1662.8 1076.33 1662.8C1080.01 1662.8 1083.3999999999999 1660 1083.3999999999999 1656Z "
          fill="#80abfb" fill-opacity="1" transform="matrix(1,0,0,1,-1067,-1644)"></path>
</svg>