<svg xmlns:xlink="http://www.w3.org/1999/xlink" xmlns:svgjs="http://svgjs.com/svgjs" id="SvgjsSvg1020"
     xmlns="http://www.w3.org/2000/svg" version="1.1" width="22" height="20" viewBox="0 0 22 20">
    <title>Shape</title>
    <desc>Created with Avocode.</desc>
    <defs id="SvgjsDefs1021"></defs>
    <path id="SvgjsPath1022"
          d="M21.83 27.29L42.17 27.29C42.63 27.29 43 26.77 43 26.14C43 25.51 42.63 25 42.17 25L21.830000000000002 25C21.37 25 21.000000000000004 25.51 21.000000000000004 26.14C21.000000000000004 26.77 21.370000000000005 27.29 21.830000000000002 27.29Z "
          fill="#ffffff" fill-opacity="1" transform="matrix(1,0,0,1,-21,-25)"></path>
    <path id="SvgjsPath1023"
          d="M21.83 36.29L42.17 36.29C42.63 36.29 43 35.769999999999996 43 35.14C43 34.51 42.63 34 42.17 34L21.830000000000002 34C21.37 34 21.000000000000004 34.51 21.000000000000004 35.14C21.000000000000004 35.77 21.370000000000005 36.29 21.830000000000002 36.29Z "
          fill="#ffffff" fill-opacity="1" transform="matrix(1,0,0,1,-21,-25)"></path>
    <path id="SvgjsPath1024"
          d="M21.83 44.29L42.17 44.29C42.63 44.29 43 43.769999999999996 43 43.14C43 42.51 42.63 42 42.17 42L21.830000000000002 42C21.37 42 21.000000000000004 42.51 21.000000000000004 43.14C21.000000000000004 43.77 21.370000000000005 44.29 21.830000000000002 44.29Z "
          fill="#ffffff" fill-opacity="1" transform="matrix(1,0,0,1,-21,-25)"></path>
</svg>