<svg xmlns:xlink="http://www.w3.org/1999/xlink" xmlns:svgjs="http://svgjs.com/svgjs" id="SvgjsSvg1116"
     xmlns="http://www.w3.org/2000/svg" version="1.1" width="38" height="38" viewBox="0 0 38 38">
    <title>Shape</title>
    <desc>Created with Avocode.</desc>
    <defs id="SvgjsDefs1117"></defs>
    <path id="SvgjsPath1118"
          d="M1100.62 2098.81C1100.62 2091.73 1094.8799999999999 2086 1087.81 2086C1080.73 2086 1075 2091.73 1075 2098.81C1075 2101.48 1075.82 2103.97 1077.23 2106.02L1075.54 2111.07L1080.59 2109.3900000000003C1082.6499999999999 2110.7900000000004 1085.1299999999999 2111.6200000000003 1087.81 2111.6200000000003C1094.8799999999999 2111.6200000000003 1100.62 2105.8800000000006 1100.62 2098.8100000000004Z "
          fill="#ffffff" fill-opacity="1" transform="matrix(1,0,0,1,-1075,-2086)"></path>
    <path id="SvgjsPath1119"
          d="M1112.03 2110.22C1112.03 2104.49 1108.26 2099.6299999999997 1103.06 2098C1103.08 2098.28 1103.08 2098.56 1103.08 2098.84C1103.08 2100.8900000000003 1102.6799999999998 2102.8900000000003 1101.8799999999999 2104.77C1101.12 2106.59 1100.02 2108.22 1098.62 2109.62C1097.2199999999998 2111.02 1095.59 2112.12 1093.77 2112.88C1091.8899999999999 2113.6800000000003 1089.8899999999999 2114.08 1087.84 2114.08C1087.56 2114.08 1087.28 2114.0699999999997 1087 2114.06C1088.63 2119.2599999999998 1093.49 2123.0299999999997 1099.22 2123.0299999999997C1101.9 2123.0299999999997 1104.38 2122.2099999999996 1106.44 2120.7999999999997L1111.49 2122.4799999999996L1109.8 2117.4399999999996C1111.21 2115.3799999999997 1112.03 2112.8999999999996 1112.03 2110.22Z "
          fill="#ffffff" fill-opacity="1" transform="matrix(1,0,0,1,-1075,-2086)"></path>
</svg>