<svg xmlns:xlink="http://www.w3.org/1999/xlink" xmlns:svgjs="http://svgjs.com/svgjs" id="SvgjsSvg1123"
     xmlns="http://www.w3.org/2000/svg" version="1.1" width="35" height="35" viewBox="0 0 35 35">
    <title>Shape</title>
    <desc>Created with Avocode.</desc>
    <defs id="SvgjsDefs1124"></defs>
    <path id="SvgjsPath1125"
          d="M526 3286.23C526 3295.75 533.82 3303.47 543.45 3303.47C553.09 3303.47 560.9100000000001 3295.75 560.9100000000001 3286.23C560.9100000000001 3276.71 553.09 3269 543.45 3269C533.82 3269 526 3276.72 526 3286.23ZM539.63 3289.99C537.75 3288.1299999999997 535.24 3287.1 532.58 3287.1L532.58 3283.06C540.35 3283.06 546.6700000000001 3289.2999999999997 546.6700000000001 3296.98L542.5600000000001 3296.98C542.5600000000001 3294.33 541.5200000000001 3291.85 539.6300000000001 3289.9900000000002ZM532.57 3294.16C532.57 3292.62 533.85 3291.35 535.4100000000001 3291.35C536.9900000000001 3291.35 538.2600000000001 3292.62 538.2600000000001 3294.16C538.2600000000001 3295.7 536.9900000000001 3296.96 535.4100000000001 3296.96C533.8500000000001 3296.96 532.57 3295.71 532.57 3294.16ZM532.58 3279.93L532.58 3275.89C544.35 3275.89 553.9300000000001 3285.35 553.9300000000001 3296.97L549.82 3296.97C549.82 3287.58 542.09 3279.93 532.58 3279.93Z "
          fill="#ffffff" fill-opacity="1" transform="matrix(1,0,0,1,-526,-3269)"></path>
</svg>