<svg xmlns:xlink="http://www.w3.org/1999/xlink" xmlns:svgjs="http://svgjs.com/svgjs" id="SvgjsSvg1126"
     xmlns="http://www.w3.org/2000/svg" version="1.1" width="35" height="35" viewBox="0 0 35 35">
    <title>Shape</title>
    <desc>Created with Avocode.</desc>
    <defs id="SvgjsDefs1127"></defs>
    <path id="SvgjsPath1128"
          d="M580 3286.13C580 3295.57 587.78 3303.26 597.35 3303.26C606.91 3303.26 614.7 3295.57 614.7 3286.13C614.7 3276.6800000000003 606.9200000000001 3269 597.35 3269C587.78 3269 580 3276.68 580 3286.13ZM605.1 3282.72C605.1 3287.93 601.08 3293.9399999999996 593.74 3293.9399999999996C591.48 3293.9399999999996 589.38 3293.2899999999995 587.62 3292.1699999999996C587.93 3292.2 588.25 3292.22 588.57 3292.22C590.44 3292.22 592.1600000000001 3291.5899999999997 593.5300000000001 3290.5299999999997C591.7800000000001 3290.4999999999995 590.3100000000001 3289.3599999999997 589.8000000000001 3287.7999999999997C590.0400000000001 3287.8399999999997 590.2900000000001 3287.87 590.5500000000001 3287.87C590.9100000000001 3287.87 591.2700000000001 3287.8199999999997 591.6 3287.73C589.78 3287.37 588.4 3285.78 588.4 3283.86C588.4 3283.85 588.4 3283.83 588.4 3283.81C588.9399999999999 3284.11 589.55 3284.29 590.2099999999999 3284.31C589.1399999999999 3283.6 588.43 3282.39 588.43 3281.0299999999997C588.43 3280.2999999999997 588.63 3279.6299999999997 588.9699999999999 3279.04C590.9399999999999 3281.43 593.8799999999999 3283 597.1999999999999 3283.16C597.1299999999999 3282.87 597.0999999999999 3282.5699999999997 597.0999999999999 3282.2599999999998C597.0999999999999 3280.0899999999997 598.8899999999999 3278.3199999999997 601.0899999999999 3278.3199999999997C602.2399999999999 3278.3199999999997 603.28 3278.7999999999997 604.0099999999999 3279.5699999999997C604.9199999999998 3279.39 605.7699999999999 3279.0599999999995 606.5399999999998 3278.6099999999997C606.2399999999999 3279.5299999999997 605.6099999999999 3280.2999999999997 604.7899999999998 3280.7899999999995C605.5899999999998 3280.6999999999994 606.3699999999999 3280.4899999999993 607.0799999999998 3280.1699999999996C606.5499999999998 3280.9599999999996 605.8699999999998 3281.6599999999994 605.0899999999998 3282.2099999999996C605.0999999999998 3282.3799999999997 605.0999999999998 3282.5499999999997 605.0999999999998 3282.72Z "
          fill="#ffffff" fill-opacity="1" transform="matrix(1,0,0,1,-580,-3269)"></path>
</svg>